G75*
G70*
%OFA0B0*%
%FSLAX24Y24*%
%IPPOS*%
%LPD*%
%AMOC8*
5,1,8,0,0,1.08239X$1,22.5*
%
%ADD10C,0.0050*%
%ADD11C,0.0236*%
D10*
X008731Y001808D02*
X008731Y009058D01*
X008733Y009088D01*
X008738Y009118D01*
X008747Y009147D01*
X008760Y009174D01*
X008775Y009200D01*
X008794Y009224D01*
X008815Y009245D01*
X008839Y009264D01*
X008865Y009279D01*
X008892Y009292D01*
X008921Y009301D01*
X008951Y009306D01*
X008981Y009308D01*
X010681Y009308D01*
X010711Y009306D01*
X010741Y009301D01*
X010770Y009292D01*
X010797Y009279D01*
X010823Y009264D01*
X010847Y009245D01*
X010868Y009224D01*
X010887Y009200D01*
X010902Y009174D01*
X010915Y009147D01*
X010924Y009118D01*
X010929Y009088D01*
X010931Y009058D01*
X010931Y001808D01*
X010929Y001764D01*
X010923Y001721D01*
X010914Y001679D01*
X010901Y001637D01*
X010884Y001597D01*
X010864Y001558D01*
X010841Y001521D01*
X010814Y001487D01*
X010785Y001454D01*
X010752Y001425D01*
X010718Y001398D01*
X010681Y001375D01*
X010642Y001355D01*
X010602Y001338D01*
X010560Y001325D01*
X010518Y001316D01*
X010475Y001310D01*
X010431Y001308D01*
X009231Y001308D01*
X009187Y001310D01*
X009144Y001316D01*
X009102Y001325D01*
X009060Y001338D01*
X009020Y001355D01*
X008981Y001375D01*
X008944Y001398D01*
X008910Y001425D01*
X008877Y001454D01*
X008848Y001487D01*
X008821Y001521D01*
X008798Y001558D01*
X008778Y001597D01*
X008761Y001637D01*
X008748Y001679D01*
X008739Y001721D01*
X008733Y001764D01*
X008731Y001808D01*
D11*
X009270Y003886D02*
X009270Y004320D01*
X010396Y004320D02*
X010396Y003886D01*
X010396Y005500D02*
X010396Y005935D01*
X009270Y005935D02*
X009270Y005500D01*
M02*
