G75*
G70*
%OFA0B0*%
%FSLAX24Y24*%
%IPPOS*%
%LPD*%
%AMOC8*
5,1,8,0,0,1.08239X$1,22.5*
%
%ADD10C,0.0060*%
%ADD11C,0.0050*%
%ADD12C,0.0040*%
%ADD13C,0.0020*%
%ADD14C,0.0080*%
%ADD15C,0.0090*%
D10*
X009315Y008094D02*
X009372Y008038D01*
X009599Y008038D01*
X009655Y008094D01*
X009655Y008208D01*
X009599Y008265D01*
X009485Y008265D01*
X009485Y008151D01*
X009372Y008265D02*
X009315Y008208D01*
X009315Y008094D01*
X009315Y008406D02*
X009655Y008633D01*
X009315Y008633D01*
X009315Y008774D02*
X009315Y008944D01*
X009372Y009001D01*
X009599Y009001D01*
X009655Y008944D01*
X009655Y008774D01*
X009315Y008774D01*
X009315Y008406D02*
X009655Y008406D01*
X010007Y008463D02*
X010064Y008406D01*
X010291Y008406D01*
X010348Y008463D01*
X010348Y008576D01*
X010291Y008633D01*
X010291Y008774D02*
X010348Y008831D01*
X010348Y008944D01*
X010291Y009001D01*
X010291Y008774D02*
X010064Y008774D01*
X010007Y008831D01*
X010007Y008944D01*
X010064Y009001D01*
X010064Y008633D02*
X010007Y008576D01*
X010007Y008463D01*
X010007Y008265D02*
X010234Y008265D01*
X010348Y008151D01*
X010234Y008038D01*
X010007Y008038D01*
D11*
X010931Y009058D02*
X010929Y009088D01*
X010924Y009118D01*
X010915Y009147D01*
X010902Y009174D01*
X010887Y009200D01*
X010868Y009224D01*
X010847Y009245D01*
X010823Y009264D01*
X010797Y009279D01*
X010770Y009292D01*
X010741Y009301D01*
X010711Y009306D01*
X010681Y009308D01*
X008981Y009308D01*
X008951Y009306D01*
X008921Y009301D01*
X008892Y009292D01*
X008865Y009279D01*
X008839Y009264D01*
X008815Y009245D01*
X008794Y009224D01*
X008775Y009200D01*
X008760Y009174D01*
X008747Y009147D01*
X008738Y009118D01*
X008733Y009088D01*
X008731Y009058D01*
X008731Y001808D01*
X008733Y001764D01*
X008739Y001721D01*
X008748Y001679D01*
X008761Y001637D01*
X008778Y001597D01*
X008798Y001558D01*
X008821Y001521D01*
X008848Y001487D01*
X008877Y001454D01*
X008910Y001425D01*
X008944Y001398D01*
X008981Y001375D01*
X009020Y001355D01*
X009060Y001338D01*
X009102Y001325D01*
X009144Y001316D01*
X009187Y001310D01*
X009231Y001308D01*
X010431Y001308D01*
X010475Y001310D01*
X010518Y001316D01*
X010560Y001325D01*
X010602Y001338D01*
X010642Y001355D01*
X010681Y001375D01*
X010718Y001398D01*
X010752Y001425D01*
X010785Y001454D01*
X010814Y001487D01*
X010841Y001521D01*
X010864Y001558D01*
X010884Y001597D01*
X010901Y001637D01*
X010914Y001679D01*
X010923Y001721D01*
X010929Y001764D01*
X010931Y001808D01*
X010931Y009058D01*
X009026Y005709D02*
X008963Y005741D01*
X008891Y005736D01*
X008841Y005694D01*
X008826Y005671D01*
X008826Y005609D01*
X008861Y005556D01*
X008906Y005534D01*
X008966Y005534D01*
X009003Y005554D01*
X009031Y005576D01*
X009046Y005609D01*
X009053Y005644D02*
X009026Y005709D01*
D12*
X009043Y005851D02*
X008893Y005849D01*
X008838Y005884D01*
X008823Y005921D01*
X008838Y005974D01*
X008863Y006006D01*
X009051Y006011D01*
X009043Y006171D02*
X008888Y006169D01*
X008843Y006141D01*
X008828Y006091D01*
X008831Y006054D01*
X008858Y006021D01*
X008993Y006591D02*
X008993Y006908D01*
X009782Y006908D01*
X009782Y006591D01*
X008993Y006591D01*
X009881Y006591D02*
X009881Y006909D01*
X010670Y006909D01*
X010670Y006591D01*
X009881Y006591D01*
D13*
X008706Y003836D02*
X008713Y003826D01*
X008726Y003819D01*
X008741Y003819D01*
X008751Y003824D01*
X008761Y003834D01*
X008761Y003844D01*
X008731Y003854D01*
X008721Y003844D01*
X008728Y003834D01*
X008746Y003836D01*
X008758Y003844D02*
X008761Y003851D01*
X008756Y003861D01*
X008748Y003866D01*
X008738Y003871D01*
X008731Y003871D01*
X008721Y003869D01*
X008711Y003859D01*
X008706Y003851D01*
X008706Y003836D01*
X008808Y003821D02*
X009063Y003821D01*
X009063Y003866D01*
X008808Y003866D01*
X008808Y003821D01*
X008821Y003834D02*
X009051Y003839D01*
X009051Y003854D01*
X008821Y003849D01*
X008876Y003734D02*
X008853Y003719D01*
X008831Y003699D01*
X008818Y003679D01*
X008806Y003651D01*
X008803Y003636D01*
X008803Y003594D01*
X008813Y003561D01*
X008826Y003539D01*
X008843Y003521D01*
X008863Y003506D01*
X008881Y003496D01*
X008913Y003489D01*
X008958Y003489D01*
X008978Y003494D01*
X009003Y003504D01*
X009026Y003519D01*
X009048Y003541D01*
X009068Y003591D01*
X009068Y003634D01*
X009053Y003681D01*
X009048Y003699D01*
X009093Y003699D01*
X009111Y003684D01*
X009128Y003664D01*
X009138Y003644D01*
X009143Y003624D01*
X009143Y003594D01*
X009131Y003544D01*
X009171Y003534D01*
X009188Y003596D01*
X009188Y003626D01*
X009183Y003661D01*
X009171Y003684D01*
X009153Y003709D01*
X009128Y003729D01*
X009103Y003739D01*
X009076Y003746D01*
X008918Y003746D01*
X008898Y003741D01*
X008876Y003734D01*
X008898Y003726D02*
X008843Y003691D01*
X008823Y003649D01*
X008818Y003604D01*
X008838Y003551D01*
X008888Y003509D01*
X008963Y003506D01*
X008996Y003519D01*
X009041Y003551D01*
X009061Y003619D01*
X009038Y003699D01*
X009016Y003699D01*
X009046Y003634D01*
X009038Y003576D01*
X009003Y003536D01*
X008951Y003521D01*
X008883Y003529D01*
X008848Y003559D01*
X008833Y003594D01*
X008838Y003646D01*
X008851Y003686D01*
X008898Y003711D01*
X008906Y003711D02*
X009101Y003714D01*
X009151Y003666D01*
X009158Y003609D01*
X009146Y003554D01*
X009156Y003541D02*
X009173Y003609D01*
X009166Y003669D01*
X009126Y003711D01*
X009088Y003729D01*
X008908Y003729D01*
X008906Y003711D01*
X008906Y003699D02*
X008998Y003699D01*
X008996Y003704D02*
X009013Y003676D01*
X009026Y003644D01*
X009028Y003636D01*
X009028Y003594D01*
X009018Y003571D01*
X008998Y003554D01*
X008966Y003536D01*
X008901Y003534D01*
X008903Y003536D02*
X008888Y003544D01*
X008873Y003556D01*
X008861Y003569D01*
X008848Y003586D01*
X008846Y003604D01*
X008846Y003641D01*
X008856Y003661D01*
X008871Y003681D01*
X008891Y003694D01*
X008906Y003699D01*
X009061Y003949D02*
X008691Y003949D01*
X008691Y003994D01*
X009063Y003994D01*
X009063Y003949D01*
X009053Y003964D02*
X008703Y003961D01*
X008703Y003981D01*
X009053Y003981D01*
X009021Y004081D02*
X008986Y004069D01*
X008738Y004069D01*
X008738Y004116D01*
X008798Y004116D01*
X008806Y004114D01*
X008806Y004194D01*
X008848Y004194D01*
X008848Y004124D01*
X008851Y004116D01*
X008988Y004116D01*
X009003Y004124D01*
X009011Y004131D01*
X009018Y004141D01*
X009026Y004156D01*
X009026Y004191D01*
X009066Y004191D01*
X009066Y004166D01*
X009066Y004161D02*
X009053Y004179D01*
X009046Y004141D01*
X009036Y004109D01*
X009008Y004094D01*
X008978Y004081D01*
X008753Y004081D01*
X008751Y004101D01*
X008981Y004099D01*
X009026Y004121D01*
X009043Y004181D01*
X009066Y004161D02*
X009061Y004141D01*
X009056Y004119D01*
X009043Y004096D01*
X009021Y004081D01*
X008963Y004244D02*
X008938Y004241D01*
X008908Y004246D01*
X008881Y004254D01*
X008843Y004279D01*
X008823Y004304D01*
X008808Y004331D01*
X008803Y004349D01*
X008803Y004396D01*
X008811Y004424D01*
X008823Y004446D01*
X008838Y004464D01*
X008858Y004481D01*
X008881Y004496D01*
X008976Y004326D01*
X008976Y004329D02*
X008946Y004309D01*
X008878Y004424D01*
X008866Y004421D01*
X008853Y004414D01*
X008846Y004401D01*
X008846Y004349D01*
X008858Y004326D01*
X008878Y004306D01*
X008891Y004299D01*
X008901Y004291D01*
X008931Y004289D01*
X008953Y004289D01*
X008978Y004299D01*
X009003Y004311D01*
X009016Y004331D01*
X009023Y004346D01*
X009028Y004354D01*
X009028Y004394D01*
X009021Y004409D01*
X009008Y004426D01*
X008993Y004441D01*
X008976Y004451D01*
X008946Y004459D01*
X008953Y004504D01*
X008986Y004494D01*
X009018Y004479D01*
X009038Y004461D01*
X009051Y004444D01*
X009061Y004424D01*
X009068Y004401D01*
X009068Y004351D01*
X009063Y004331D01*
X009053Y004306D01*
X009038Y004286D01*
X009018Y004269D01*
X008988Y004251D01*
X008963Y004244D01*
X008963Y004259D02*
X009026Y004289D01*
X009056Y004349D01*
X009056Y004404D01*
X009018Y004461D01*
X008961Y004486D01*
X008963Y004469D02*
X009006Y004454D01*
X009036Y004406D01*
X009043Y004391D01*
X009043Y004349D01*
X009018Y004301D01*
X008956Y004274D01*
X008896Y004279D01*
X008861Y004299D01*
X008836Y004341D01*
X008833Y004394D01*
X008846Y004421D01*
X008863Y004434D01*
X008881Y004439D01*
X008946Y004326D01*
X008961Y004329D01*
X008876Y004476D01*
X008836Y004441D01*
X008876Y004454D01*
X008853Y004441D02*
X008816Y004401D01*
X008816Y004384D01*
X008816Y004346D02*
X008853Y004284D01*
X008896Y004266D01*
X008963Y004259D01*
X008838Y004181D02*
X008821Y004181D01*
X008821Y004111D01*
X008836Y004109D02*
X008838Y004181D01*
X008818Y004346D02*
X008831Y004434D01*
X008851Y004559D02*
X008868Y004556D01*
X008883Y004556D01*
X008901Y004564D01*
X008918Y004576D01*
X008943Y004614D01*
X008976Y004691D01*
X008988Y004701D01*
X009001Y004706D01*
X009013Y004696D01*
X009023Y004684D01*
X009023Y004556D01*
X009063Y004556D01*
X009063Y004671D01*
X009056Y004711D01*
X009043Y004731D01*
X009021Y004746D01*
X008978Y004746D01*
X008958Y004739D01*
X008943Y004721D01*
X008896Y004614D01*
X008886Y004604D01*
X008881Y004601D01*
X008863Y004601D01*
X008853Y004606D01*
X008851Y004609D01*
X008848Y004616D01*
X008848Y004734D01*
X008808Y004734D01*
X008808Y004621D01*
X008813Y004599D01*
X008821Y004584D01*
X008836Y004569D01*
X008851Y004559D01*
X008841Y004579D02*
X008888Y004574D01*
X008918Y004599D01*
X008966Y004704D01*
X008996Y004714D01*
X009016Y004719D01*
X009033Y004694D01*
X009038Y004684D02*
X009038Y004569D01*
X009041Y004564D01*
X009043Y004591D01*
X009051Y004566D02*
X009048Y004694D01*
X009038Y004684D01*
X009048Y004701D02*
X009018Y004731D01*
X008968Y004724D01*
X008946Y004701D01*
X008901Y004596D01*
X008881Y004584D01*
X008851Y004594D01*
X008836Y004609D01*
X008833Y004719D01*
X008823Y004721D01*
X008826Y004609D01*
X008841Y004579D01*
X009061Y004559D02*
X009063Y004556D01*
X008961Y004804D02*
X008998Y004816D01*
X009028Y004836D01*
X009046Y004854D01*
X009056Y004876D01*
X009068Y004906D01*
X009068Y004949D01*
X009053Y004996D01*
X009051Y005001D01*
X009051Y005009D01*
X009063Y005019D01*
X009063Y005026D01*
X009063Y005031D02*
X009063Y005061D01*
X008923Y005061D01*
X008898Y005056D01*
X008878Y005049D01*
X008851Y005034D01*
X008831Y005014D01*
X008813Y004984D01*
X008806Y004964D01*
X008803Y004949D01*
X008803Y004909D01*
X008811Y004884D01*
X008821Y004861D01*
X008841Y004839D01*
X008863Y004821D01*
X008886Y004811D01*
X008911Y004804D01*
X008961Y004804D01*
X008971Y004821D02*
X009033Y004861D01*
X009056Y004909D01*
X009051Y004951D01*
X009033Y004994D01*
X009041Y005014D01*
X009051Y005029D01*
X009041Y005029D01*
X009023Y004999D01*
X009033Y005034D01*
X009011Y005024D01*
X009011Y005034D01*
X008911Y005026D01*
X008853Y004999D01*
X008833Y004941D01*
X008841Y004884D01*
X008878Y004844D01*
X008953Y004834D01*
X008996Y004849D01*
X009031Y004879D01*
X009046Y004951D01*
X009031Y004956D02*
X009023Y004976D01*
X009011Y004994D01*
X009008Y004996D01*
X009016Y005004D01*
X009011Y005011D02*
X009008Y005014D01*
X009003Y005016D01*
X008908Y005014D01*
X008896Y005009D01*
X008876Y004999D01*
X008858Y004981D01*
X008848Y004961D01*
X008846Y004954D01*
X008846Y004911D01*
X008853Y004889D01*
X008866Y004871D01*
X008883Y004859D01*
X008901Y004849D01*
X008971Y004849D01*
X008986Y004859D01*
X009011Y004876D01*
X009026Y004896D01*
X009031Y004914D01*
X009031Y004956D01*
X009056Y005049D02*
X008918Y005044D01*
X008858Y005021D01*
X008836Y004991D01*
X008821Y004946D01*
X008821Y004901D01*
X008838Y004861D01*
X008886Y004826D01*
X008918Y004819D01*
X008971Y004821D01*
X009028Y005149D02*
X009048Y005149D01*
X009056Y005151D01*
X009066Y005161D01*
X009068Y005171D01*
X009051Y005189D01*
X009033Y005191D01*
X009023Y005179D01*
X009033Y005166D01*
X009048Y005169D01*
X009041Y005176D01*
X009068Y005176D02*
X009068Y005186D01*
X009066Y005194D01*
X009058Y005204D01*
X009051Y005206D01*
X009033Y005206D01*
X009023Y005201D01*
X009011Y005189D01*
X009011Y005166D01*
X009018Y005156D01*
X009028Y005149D01*
X008978Y005289D02*
X009003Y005301D01*
X009018Y005314D01*
X009033Y005329D01*
X009048Y005349D01*
X009056Y005366D01*
X009061Y005386D01*
X009066Y005414D01*
X009066Y005456D01*
X009023Y005456D01*
X009023Y005406D01*
X009018Y005389D01*
X009008Y005366D01*
X008991Y005349D01*
X008973Y005336D01*
X008961Y005331D01*
X008956Y005329D01*
X008916Y005329D01*
X008901Y005339D01*
X008878Y005351D01*
X008863Y005374D01*
X008856Y005389D01*
X008851Y005414D01*
X008851Y005456D01*
X008808Y005456D01*
X008808Y005406D01*
X008811Y005384D01*
X008818Y005361D01*
X008833Y005336D01*
X008851Y005319D01*
X008866Y005306D01*
X008886Y005296D01*
X008906Y005289D01*
X008923Y005284D01*
X008953Y005284D01*
X008978Y005289D01*
X008968Y005301D02*
X008901Y005301D01*
X008851Y005339D01*
X008823Y005386D01*
X008821Y005441D01*
X008836Y005441D01*
X008838Y005386D01*
X008871Y005341D01*
X008906Y005316D01*
X008971Y005319D01*
X009013Y005349D01*
X009033Y005386D01*
X009038Y005441D01*
X009053Y005446D02*
X009048Y005379D01*
X009016Y005329D01*
X008968Y005301D01*
X009066Y005411D02*
X009066Y005414D01*
X008998Y005521D02*
X009016Y005531D01*
X009033Y005549D01*
X009051Y005569D01*
X009061Y005589D01*
X009068Y005614D01*
X009068Y005624D01*
X009068Y005626D02*
X009068Y005659D01*
X009063Y005681D01*
X009053Y005706D01*
X009033Y005729D01*
X009008Y005746D01*
X008991Y005759D01*
X008966Y005764D01*
X008908Y005764D01*
X008881Y005756D01*
X008861Y005746D01*
X008823Y005709D01*
X008808Y005681D01*
X008803Y005654D01*
X008803Y005611D01*
X008813Y005584D01*
X008831Y005556D01*
X008853Y005534D01*
X008876Y005519D01*
X008913Y005509D01*
X008961Y005509D01*
X008978Y005514D01*
X008998Y005521D01*
X008983Y005564D02*
X009003Y005576D01*
X009018Y005594D01*
X009028Y005611D01*
X009028Y005651D01*
X009031Y005644D02*
X009026Y005664D01*
X009016Y005684D01*
X009003Y005696D01*
X008986Y005709D01*
X008973Y005714D01*
X008963Y005716D01*
X008911Y005716D01*
X008891Y005709D01*
X008871Y005696D01*
X008856Y005681D01*
X008848Y005666D01*
X008846Y005659D01*
X008846Y005619D01*
X008851Y005601D01*
X008863Y005581D01*
X008876Y005571D01*
X008896Y005559D01*
X008911Y005554D01*
X008961Y005554D01*
X008983Y005564D01*
X009066Y005829D02*
X008893Y005829D01*
X008858Y005839D01*
X008833Y005854D01*
X008816Y005876D01*
X008803Y005909D01*
X008803Y005949D01*
X008811Y005969D01*
X008826Y005994D01*
X008836Y006004D01*
X008836Y006014D01*
X008828Y006026D01*
X008816Y006041D01*
X008806Y006059D01*
X008803Y006071D01*
X008803Y006106D01*
X008808Y006124D01*
X008818Y006144D01*
X008833Y006161D01*
X008848Y006174D01*
X008871Y006184D01*
X008886Y006189D01*
X008908Y006191D01*
X009063Y006191D01*
X009063Y006146D01*
X008891Y006146D01*
X008873Y006139D01*
X008858Y006129D01*
X008853Y006114D01*
X008848Y006104D01*
X008848Y006064D01*
X008863Y006046D01*
X008878Y006036D01*
X008883Y006034D01*
X009063Y006034D01*
X009063Y005989D01*
X008883Y005989D01*
X008866Y005976D01*
X008856Y005964D01*
X008846Y005944D01*
X008846Y005914D01*
X008853Y005896D01*
X008863Y005886D01*
X008876Y005879D01*
X008891Y005871D01*
X009066Y005871D01*
X009066Y005829D01*
D14*
X009202Y006269D02*
X009202Y006405D01*
X010461Y006405D01*
X010461Y006269D01*
X010461Y005186D02*
X010461Y004640D01*
X009202Y004640D02*
X009202Y005186D01*
X009290Y007401D02*
X008995Y007401D01*
X008995Y009251D01*
X010668Y009251D01*
X010668Y007401D01*
X010373Y007401D01*
D15*
X010578Y007251D02*
X010578Y006951D01*
X010428Y007101D02*
X010728Y007101D01*
M02*
