G75*
G70*
%OFA0B0*%
%FSLAX24Y24*%
%IPPOS*%
%LPD*%
%AMOC8*
5,1,8,0,0,1.08239X$1,22.5*
%
%ADD10C,0.0060*%
%ADD11C,0.0050*%
D10*
X009104Y002018D02*
X009154Y001968D01*
X009254Y001968D01*
X009304Y002018D01*
X009104Y002219D01*
X009104Y002018D01*
X009104Y002219D02*
X009154Y002269D01*
X009254Y002269D01*
X009304Y002219D01*
X009304Y002018D01*
X009436Y001968D02*
X009636Y001968D01*
X009536Y001968D02*
X009536Y002269D01*
X009636Y002168D01*
X009767Y002269D02*
X009967Y001968D01*
X010099Y002018D02*
X010149Y001968D01*
X010249Y001968D01*
X010299Y002018D01*
X010430Y001968D02*
X010630Y001968D01*
X010430Y002168D01*
X010430Y002219D01*
X010480Y002269D01*
X010580Y002269D01*
X010630Y002219D01*
X010299Y002219D02*
X010249Y002269D01*
X010149Y002269D01*
X010099Y002219D01*
X010099Y002168D01*
X010149Y002118D01*
X010099Y002068D01*
X010099Y002018D01*
X010149Y002118D02*
X010199Y002118D01*
X010181Y001769D02*
X010181Y001568D01*
X010282Y001468D01*
X010382Y001568D01*
X010382Y001769D01*
X010050Y001668D02*
X009950Y001769D01*
X009950Y001468D01*
X010050Y001468D02*
X009850Y001468D01*
X009719Y001468D02*
X009669Y001468D01*
X009669Y001518D01*
X009719Y001518D01*
X009719Y001468D01*
X009553Y001518D02*
X009553Y001719D01*
X009503Y001769D01*
X009403Y001769D01*
X009353Y001719D01*
X009553Y001518D01*
X009503Y001468D01*
X009403Y001468D01*
X009353Y001518D01*
X009353Y001719D01*
X009254Y002658D02*
X009154Y002658D01*
X009104Y002708D01*
X009254Y002658D02*
X009304Y002708D01*
X009304Y002908D01*
X009254Y002958D01*
X009154Y002958D01*
X009104Y002908D01*
X009320Y003158D02*
X009270Y003208D01*
X009270Y003258D01*
X009320Y003308D01*
X009420Y003308D01*
X009470Y003358D01*
X009470Y003408D01*
X009420Y003458D01*
X009320Y003458D01*
X009270Y003408D01*
X009320Y003158D02*
X009420Y003158D01*
X009470Y003208D01*
X009601Y003158D02*
X009801Y003158D01*
X009801Y003458D01*
X009601Y003458D01*
X009701Y003308D02*
X009801Y003308D01*
X009933Y003158D02*
X009933Y003458D01*
X010133Y003458D02*
X009933Y003158D01*
X010133Y003158D02*
X010133Y003458D01*
X010264Y003408D02*
X010314Y003458D01*
X010414Y003458D01*
X010464Y003408D01*
X010464Y003358D01*
X010414Y003308D01*
X010314Y003308D01*
X010264Y003258D01*
X010264Y003208D01*
X010314Y003158D01*
X010414Y003158D01*
X010464Y003208D01*
X010430Y002958D02*
X010430Y002708D01*
X010480Y002658D01*
X010580Y002658D01*
X010630Y002708D01*
X010630Y002958D01*
X010299Y002908D02*
X010299Y002858D01*
X010249Y002808D01*
X010149Y002808D01*
X010099Y002758D01*
X010099Y002708D01*
X010149Y002658D01*
X010249Y002658D01*
X010299Y002708D01*
X010299Y002908D02*
X010249Y002958D01*
X010149Y002958D01*
X010099Y002908D01*
X009967Y002958D02*
X009817Y002958D01*
X009767Y002908D01*
X009767Y002858D01*
X009817Y002808D01*
X009967Y002808D01*
X009967Y002658D02*
X009817Y002658D01*
X009767Y002708D01*
X009767Y002758D01*
X009817Y002808D01*
X009636Y002808D02*
X009436Y002808D01*
X009967Y002658D02*
X009967Y002958D01*
X010121Y008038D02*
X010008Y008151D01*
X010121Y008265D01*
X010348Y008265D01*
X010291Y008406D02*
X010064Y008406D01*
X010008Y008463D01*
X010008Y008576D01*
X010064Y008633D01*
X010064Y008774D02*
X010008Y008831D01*
X010008Y008944D01*
X010064Y009001D01*
X010064Y008774D02*
X010291Y008774D01*
X010348Y008831D01*
X010348Y008944D01*
X010291Y009001D01*
X010291Y008633D02*
X010348Y008576D01*
X010348Y008463D01*
X010291Y008406D01*
X010348Y008038D02*
X010121Y008038D01*
X009656Y008094D02*
X009599Y008038D01*
X009372Y008038D01*
X009315Y008094D01*
X009315Y008208D01*
X009372Y008265D01*
X009486Y008265D01*
X009486Y008151D01*
X009599Y008265D02*
X009656Y008208D01*
X009656Y008094D01*
X009656Y008406D02*
X009315Y008406D01*
X009315Y008633D02*
X009656Y008633D01*
X009656Y008774D02*
X009656Y008944D01*
X009599Y009001D01*
X009372Y009001D01*
X009315Y008944D01*
X009315Y008774D01*
X009656Y008774D01*
X009656Y008406D02*
X009315Y008633D01*
D11*
X008731Y009058D02*
X008731Y001808D01*
X008733Y001764D01*
X008739Y001721D01*
X008748Y001679D01*
X008761Y001637D01*
X008778Y001597D01*
X008798Y001558D01*
X008821Y001521D01*
X008848Y001487D01*
X008877Y001454D01*
X008910Y001425D01*
X008944Y001398D01*
X008981Y001375D01*
X009020Y001355D01*
X009060Y001338D01*
X009102Y001325D01*
X009144Y001316D01*
X009187Y001310D01*
X009231Y001308D01*
X010431Y001308D01*
X010475Y001310D01*
X010518Y001316D01*
X010560Y001325D01*
X010602Y001338D01*
X010642Y001355D01*
X010681Y001375D01*
X010718Y001398D01*
X010752Y001425D01*
X010785Y001454D01*
X010814Y001487D01*
X010841Y001521D01*
X010864Y001558D01*
X010884Y001597D01*
X010901Y001637D01*
X010914Y001679D01*
X010923Y001721D01*
X010929Y001764D01*
X010931Y001808D01*
X010931Y009058D01*
X010929Y009088D01*
X010924Y009118D01*
X010915Y009147D01*
X010902Y009174D01*
X010887Y009200D01*
X010868Y009224D01*
X010847Y009245D01*
X010823Y009264D01*
X010797Y009279D01*
X010770Y009292D01*
X010741Y009301D01*
X010711Y009306D01*
X010681Y009308D01*
X008981Y009308D01*
X008951Y009306D01*
X008921Y009301D01*
X008892Y009292D01*
X008865Y009279D01*
X008839Y009264D01*
X008815Y009245D01*
X008794Y009224D01*
X008775Y009200D01*
X008760Y009174D01*
X008747Y009147D01*
X008738Y009118D01*
X008733Y009088D01*
X008731Y009058D01*
M02*
