G75*
G70*
%OFA0B0*%
%FSLAX24Y24*%
%IPPOS*%
%LPD*%
%AMOC8*
5,1,8,0,0,1.08239X$1,22.5*
%
%ADD10C,0.0050*%
%ADD11C,0.0300*%
%ADD12C,0.0004*%
%ADD13C,0.0317*%
D10*
X008731Y001808D02*
X008731Y009058D01*
X008733Y009088D01*
X008738Y009118D01*
X008747Y009147D01*
X008760Y009174D01*
X008775Y009200D01*
X008794Y009224D01*
X008815Y009245D01*
X008839Y009264D01*
X008865Y009279D01*
X008892Y009292D01*
X008921Y009301D01*
X008951Y009306D01*
X008981Y009308D01*
X010681Y009308D01*
X010711Y009306D01*
X010741Y009301D01*
X010770Y009292D01*
X010797Y009279D01*
X010823Y009264D01*
X010847Y009245D01*
X010868Y009224D01*
X010887Y009200D01*
X010902Y009174D01*
X010915Y009147D01*
X010924Y009118D01*
X010929Y009088D01*
X010931Y009058D01*
X010931Y001808D01*
X010929Y001764D01*
X010923Y001721D01*
X010914Y001679D01*
X010901Y001637D01*
X010884Y001597D01*
X010864Y001558D01*
X010841Y001521D01*
X010814Y001487D01*
X010785Y001454D01*
X010752Y001425D01*
X010718Y001398D01*
X010681Y001375D01*
X010642Y001355D01*
X010602Y001338D01*
X010560Y001325D01*
X010518Y001316D01*
X010475Y001310D01*
X010431Y001308D01*
X009231Y001308D01*
X009187Y001310D01*
X009144Y001316D01*
X009102Y001325D01*
X009060Y001338D01*
X009020Y001355D01*
X008981Y001375D01*
X008944Y001398D01*
X008910Y001425D01*
X008877Y001454D01*
X008848Y001487D01*
X008821Y001521D01*
X008798Y001558D01*
X008778Y001597D01*
X008761Y001637D01*
X008748Y001679D01*
X008739Y001721D01*
X008733Y001764D01*
X008731Y001808D01*
D11*
X009831Y003905D03*
X009831Y004298D03*
X009831Y004692D03*
X009831Y005086D03*
X009831Y005479D03*
X009831Y005873D03*
D12*
X009502Y005873D02*
X009035Y005873D01*
X009035Y005875D02*
X009502Y005875D01*
X009502Y005877D02*
X009035Y005877D01*
X009035Y005880D02*
X009502Y005880D01*
X009502Y005882D02*
X009035Y005882D01*
X009035Y005885D02*
X009502Y005885D01*
X009502Y005887D02*
X009035Y005887D01*
X009035Y005890D02*
X009502Y005890D01*
X009502Y005892D02*
X009035Y005892D01*
X009035Y005894D02*
X009502Y005894D01*
X009502Y005897D02*
X009035Y005897D01*
X009035Y005899D02*
X009502Y005899D01*
X009502Y005902D02*
X009035Y005902D01*
X009035Y005904D02*
X009502Y005904D01*
X009502Y005907D02*
X009035Y005907D01*
X009035Y005909D02*
X009502Y005909D01*
X009502Y005912D02*
X009035Y005912D01*
X009035Y005914D02*
X009502Y005914D01*
X009502Y005916D02*
X009035Y005916D01*
X009035Y005919D02*
X009502Y005919D01*
X009502Y005921D02*
X009035Y005921D01*
X009035Y005924D02*
X009502Y005924D01*
X009502Y005926D02*
X009035Y005926D01*
X009035Y005927D02*
X009041Y005980D01*
X009496Y005980D01*
X009495Y005982D02*
X009042Y005982D01*
X009041Y005980D02*
X009058Y006030D01*
X009087Y006075D01*
X009451Y006075D01*
X009453Y006072D02*
X009085Y006072D01*
X009084Y006070D02*
X009454Y006070D01*
X009456Y006068D02*
X009082Y006068D01*
X009081Y006065D02*
X009458Y006065D01*
X009460Y006063D02*
X009079Y006063D01*
X009077Y006060D02*
X009462Y006060D01*
X009464Y006058D02*
X009076Y006058D01*
X009074Y006055D02*
X009465Y006055D01*
X009464Y006057D02*
X009485Y006017D01*
X009498Y005972D01*
X009502Y005927D01*
X009502Y005500D01*
X009036Y005500D01*
X009035Y005500D02*
X009042Y005448D01*
X009059Y005399D01*
X009087Y005354D01*
X009125Y005317D01*
X009413Y005317D01*
X009415Y005319D02*
X009122Y005319D01*
X009120Y005322D02*
X009418Y005322D01*
X009421Y005324D02*
X009117Y005324D01*
X009115Y005327D02*
X009424Y005327D01*
X009427Y005329D02*
X009113Y005329D01*
X009110Y005331D02*
X009430Y005331D01*
X009433Y005334D02*
X009108Y005334D01*
X009105Y005336D02*
X009436Y005336D01*
X009435Y005336D02*
X009400Y005307D01*
X009360Y005285D01*
X009317Y005271D01*
X009272Y005266D01*
X009219Y005272D01*
X009169Y005289D01*
X009125Y005317D01*
X009129Y005314D02*
X009410Y005314D01*
X009407Y005312D02*
X009133Y005312D01*
X009137Y005310D02*
X009404Y005310D01*
X009401Y005307D02*
X009141Y005307D01*
X009144Y005305D02*
X009397Y005305D01*
X009392Y005302D02*
X009148Y005302D01*
X009152Y005300D02*
X009388Y005300D01*
X009383Y005297D02*
X009156Y005297D01*
X009160Y005295D02*
X009379Y005295D01*
X009375Y005292D02*
X009164Y005292D01*
X009168Y005290D02*
X009370Y005290D01*
X009366Y005288D02*
X009174Y005288D01*
X009181Y005285D02*
X009361Y005285D01*
X009354Y005283D02*
X009188Y005283D01*
X009195Y005280D02*
X009346Y005280D01*
X009338Y005278D02*
X009202Y005278D01*
X009209Y005275D02*
X009331Y005275D01*
X009323Y005273D02*
X009216Y005273D01*
X009232Y005271D02*
X009312Y005271D01*
X009289Y005268D02*
X009254Y005268D01*
X009103Y005339D02*
X009438Y005339D01*
X009440Y005341D02*
X009100Y005341D01*
X009098Y005344D02*
X009442Y005344D01*
X009443Y005346D02*
X009095Y005346D01*
X009093Y005349D02*
X009445Y005349D01*
X009447Y005351D02*
X009090Y005351D01*
X009088Y005353D02*
X009449Y005353D01*
X009451Y005356D02*
X009086Y005356D01*
X009085Y005358D02*
X009453Y005358D01*
X009455Y005361D02*
X009083Y005361D01*
X009082Y005363D02*
X009457Y005363D01*
X009459Y005366D02*
X009080Y005366D01*
X009078Y005368D02*
X009461Y005368D01*
X009463Y005370D02*
X009077Y005370D01*
X009075Y005373D02*
X009465Y005373D01*
X009464Y005371D02*
X009435Y005336D01*
X009464Y005371D02*
X009485Y005411D01*
X009498Y005455D01*
X009502Y005500D01*
X009502Y005502D02*
X009035Y005502D01*
X009035Y005500D02*
X009035Y005927D01*
X009036Y005929D02*
X009501Y005929D01*
X009501Y005931D02*
X009036Y005931D01*
X009036Y005933D02*
X009501Y005933D01*
X009501Y005936D02*
X009036Y005936D01*
X009037Y005938D02*
X009501Y005938D01*
X009500Y005941D02*
X009037Y005941D01*
X009037Y005943D02*
X009500Y005943D01*
X009500Y005946D02*
X009037Y005946D01*
X009038Y005948D02*
X009500Y005948D01*
X009500Y005951D02*
X009038Y005951D01*
X009038Y005953D02*
X009499Y005953D01*
X009499Y005955D02*
X009039Y005955D01*
X009039Y005958D02*
X009499Y005958D01*
X009499Y005960D02*
X009039Y005960D01*
X009039Y005963D02*
X009499Y005963D01*
X009498Y005965D02*
X009040Y005965D01*
X009040Y005968D02*
X009498Y005968D01*
X009498Y005970D02*
X009040Y005970D01*
X009040Y005972D02*
X009498Y005972D01*
X009497Y005975D02*
X009041Y005975D01*
X009041Y005977D02*
X009496Y005977D01*
X009494Y005985D02*
X009043Y005985D01*
X009044Y005987D02*
X009494Y005987D01*
X009493Y005990D02*
X009045Y005990D01*
X009045Y005992D02*
X009492Y005992D01*
X009492Y005994D02*
X009046Y005994D01*
X009047Y005997D02*
X009491Y005997D01*
X009490Y005999D02*
X009048Y005999D01*
X009049Y006002D02*
X009490Y006002D01*
X009489Y006004D02*
X009050Y006004D01*
X009051Y006007D02*
X009488Y006007D01*
X009487Y006009D02*
X009051Y006009D01*
X009052Y006011D02*
X009487Y006011D01*
X009486Y006014D02*
X009053Y006014D01*
X009054Y006016D02*
X009485Y006016D01*
X009484Y006019D02*
X009055Y006019D01*
X009056Y006021D02*
X009483Y006021D01*
X009482Y006024D02*
X009056Y006024D01*
X009057Y006026D02*
X009480Y006026D01*
X009479Y006029D02*
X009058Y006029D01*
X009059Y006031D02*
X009478Y006031D01*
X009477Y006033D02*
X009061Y006033D01*
X009062Y006036D02*
X009475Y006036D01*
X009474Y006038D02*
X009064Y006038D01*
X009065Y006041D02*
X009473Y006041D01*
X009472Y006043D02*
X009067Y006043D01*
X009068Y006046D02*
X009470Y006046D01*
X009469Y006048D02*
X009070Y006048D01*
X009071Y006050D02*
X009468Y006050D01*
X009467Y006053D02*
X009073Y006053D01*
X009087Y006075D02*
X009124Y006113D01*
X009169Y006141D01*
X009219Y006159D01*
X009272Y006165D01*
X009317Y006160D01*
X009361Y006145D01*
X009401Y006123D01*
X009436Y006093D01*
X009464Y006057D01*
X009449Y006077D02*
X009089Y006077D01*
X009091Y006080D02*
X009447Y006080D01*
X009445Y006082D02*
X009094Y006082D01*
X009096Y006085D02*
X009443Y006085D01*
X009441Y006087D02*
X009099Y006087D01*
X009101Y006089D02*
X009439Y006089D01*
X009437Y006092D02*
X009104Y006092D01*
X009106Y006094D02*
X009435Y006094D01*
X009432Y006097D02*
X009108Y006097D01*
X009111Y006099D02*
X009429Y006099D01*
X009426Y006102D02*
X009113Y006102D01*
X009116Y006104D02*
X009423Y006104D01*
X009421Y006107D02*
X009118Y006107D01*
X009120Y006109D02*
X009418Y006109D01*
X009415Y006111D02*
X009123Y006111D01*
X009126Y006114D02*
X009412Y006114D01*
X009409Y006116D02*
X009130Y006116D01*
X009134Y006119D02*
X009406Y006119D01*
X009403Y006121D02*
X009138Y006121D01*
X009141Y006124D02*
X009400Y006124D01*
X009396Y006126D02*
X009145Y006126D01*
X009149Y006128D02*
X009391Y006128D01*
X009387Y006131D02*
X009153Y006131D01*
X009157Y006133D02*
X009383Y006133D01*
X009378Y006136D02*
X009161Y006136D01*
X009165Y006138D02*
X009374Y006138D01*
X009370Y006141D02*
X009168Y006141D01*
X009175Y006143D02*
X009365Y006143D01*
X009361Y006146D02*
X009182Y006146D01*
X009189Y006148D02*
X009353Y006148D01*
X009346Y006150D02*
X009195Y006150D01*
X009202Y006153D02*
X009338Y006153D01*
X009331Y006155D02*
X009209Y006155D01*
X009216Y006158D02*
X009323Y006158D01*
X009312Y006160D02*
X009231Y006160D01*
X009252Y006163D02*
X009291Y006163D01*
X009502Y005870D02*
X009035Y005870D01*
X009035Y005868D02*
X009502Y005868D01*
X009502Y005865D02*
X009035Y005865D01*
X009035Y005863D02*
X009502Y005863D01*
X009502Y005860D02*
X009035Y005860D01*
X009035Y005858D02*
X009502Y005858D01*
X009502Y005855D02*
X009035Y005855D01*
X009035Y005853D02*
X009502Y005853D01*
X009502Y005851D02*
X009035Y005851D01*
X009035Y005848D02*
X009502Y005848D01*
X009502Y005846D02*
X009035Y005846D01*
X009035Y005843D02*
X009502Y005843D01*
X009502Y005841D02*
X009035Y005841D01*
X009035Y005838D02*
X009502Y005838D01*
X009502Y005836D02*
X009035Y005836D01*
X009035Y005834D02*
X009502Y005834D01*
X009502Y005831D02*
X009035Y005831D01*
X009035Y005829D02*
X009502Y005829D01*
X009502Y005826D02*
X009035Y005826D01*
X009035Y005824D02*
X009502Y005824D01*
X009502Y005821D02*
X009035Y005821D01*
X009035Y005819D02*
X009502Y005819D01*
X009502Y005817D02*
X009035Y005817D01*
X009035Y005814D02*
X009502Y005814D01*
X009502Y005812D02*
X009035Y005812D01*
X009035Y005809D02*
X009502Y005809D01*
X009502Y005807D02*
X009035Y005807D01*
X009035Y005804D02*
X009502Y005804D01*
X009502Y005802D02*
X009035Y005802D01*
X009035Y005799D02*
X009502Y005799D01*
X009502Y005797D02*
X009035Y005797D01*
X009035Y005795D02*
X009502Y005795D01*
X009502Y005792D02*
X009035Y005792D01*
X009035Y005790D02*
X009502Y005790D01*
X009502Y005787D02*
X009035Y005787D01*
X009035Y005785D02*
X009502Y005785D01*
X009502Y005782D02*
X009035Y005782D01*
X009035Y005780D02*
X009502Y005780D01*
X009502Y005778D02*
X009035Y005778D01*
X009035Y005775D02*
X009502Y005775D01*
X009502Y005773D02*
X009035Y005773D01*
X009035Y005770D02*
X009502Y005770D01*
X009502Y005768D02*
X009035Y005768D01*
X009035Y005765D02*
X009502Y005765D01*
X009502Y005763D02*
X009035Y005763D01*
X009035Y005760D02*
X009502Y005760D01*
X009502Y005758D02*
X009035Y005758D01*
X009035Y005756D02*
X009502Y005756D01*
X009502Y005753D02*
X009035Y005753D01*
X009035Y005751D02*
X009502Y005751D01*
X009502Y005748D02*
X009035Y005748D01*
X009035Y005746D02*
X009502Y005746D01*
X009502Y005743D02*
X009035Y005743D01*
X009035Y005741D02*
X009502Y005741D01*
X009502Y005739D02*
X009035Y005739D01*
X009035Y005736D02*
X009502Y005736D01*
X009502Y005734D02*
X009035Y005734D01*
X009035Y005731D02*
X009502Y005731D01*
X009502Y005729D02*
X009035Y005729D01*
X009035Y005726D02*
X009502Y005726D01*
X009502Y005724D02*
X009035Y005724D01*
X009035Y005721D02*
X009502Y005721D01*
X009502Y005719D02*
X009035Y005719D01*
X009035Y005717D02*
X009502Y005717D01*
X009502Y005714D02*
X009035Y005714D01*
X009035Y005712D02*
X009502Y005712D01*
X009502Y005709D02*
X009035Y005709D01*
X009035Y005707D02*
X009502Y005707D01*
X009502Y005704D02*
X009035Y005704D01*
X009035Y005702D02*
X009502Y005702D01*
X009502Y005700D02*
X009035Y005700D01*
X009035Y005697D02*
X009502Y005697D01*
X009502Y005695D02*
X009035Y005695D01*
X009035Y005692D02*
X009502Y005692D01*
X009502Y005690D02*
X009035Y005690D01*
X009035Y005687D02*
X009502Y005687D01*
X009502Y005685D02*
X009035Y005685D01*
X009035Y005682D02*
X009502Y005682D01*
X009502Y005680D02*
X009035Y005680D01*
X009035Y005678D02*
X009502Y005678D01*
X009502Y005675D02*
X009035Y005675D01*
X009035Y005673D02*
X009502Y005673D01*
X009502Y005670D02*
X009035Y005670D01*
X009035Y005668D02*
X009502Y005668D01*
X009502Y005665D02*
X009035Y005665D01*
X009035Y005663D02*
X009502Y005663D01*
X009502Y005661D02*
X009035Y005661D01*
X009035Y005658D02*
X009502Y005658D01*
X009502Y005656D02*
X009035Y005656D01*
X009035Y005653D02*
X009502Y005653D01*
X009502Y005651D02*
X009035Y005651D01*
X009035Y005648D02*
X009502Y005648D01*
X009502Y005646D02*
X009035Y005646D01*
X009035Y005643D02*
X009502Y005643D01*
X009502Y005641D02*
X009035Y005641D01*
X009035Y005639D02*
X009502Y005639D01*
X009502Y005636D02*
X009035Y005636D01*
X009035Y005634D02*
X009502Y005634D01*
X009502Y005631D02*
X009035Y005631D01*
X009035Y005629D02*
X009502Y005629D01*
X009502Y005626D02*
X009035Y005626D01*
X009035Y005624D02*
X009502Y005624D01*
X009502Y005622D02*
X009035Y005622D01*
X009035Y005619D02*
X009502Y005619D01*
X009502Y005617D02*
X009035Y005617D01*
X009035Y005614D02*
X009502Y005614D01*
X009502Y005612D02*
X009035Y005612D01*
X009035Y005609D02*
X009502Y005609D01*
X009502Y005607D02*
X009035Y005607D01*
X009035Y005604D02*
X009502Y005604D01*
X009502Y005602D02*
X009035Y005602D01*
X009035Y005600D02*
X009502Y005600D01*
X009502Y005597D02*
X009035Y005597D01*
X009035Y005595D02*
X009502Y005595D01*
X009502Y005592D02*
X009035Y005592D01*
X009035Y005590D02*
X009502Y005590D01*
X009502Y005587D02*
X009035Y005587D01*
X009035Y005585D02*
X009502Y005585D01*
X009502Y005583D02*
X009035Y005583D01*
X009035Y005580D02*
X009502Y005580D01*
X009502Y005578D02*
X009035Y005578D01*
X009035Y005575D02*
X009502Y005575D01*
X009502Y005573D02*
X009035Y005573D01*
X009035Y005570D02*
X009502Y005570D01*
X009502Y005568D02*
X009035Y005568D01*
X009035Y005565D02*
X009502Y005565D01*
X009502Y005563D02*
X009035Y005563D01*
X009035Y005561D02*
X009502Y005561D01*
X009502Y005558D02*
X009035Y005558D01*
X009035Y005556D02*
X009502Y005556D01*
X009502Y005553D02*
X009035Y005553D01*
X009035Y005551D02*
X009502Y005551D01*
X009502Y005548D02*
X009035Y005548D01*
X009035Y005546D02*
X009502Y005546D01*
X009502Y005544D02*
X009035Y005544D01*
X009035Y005541D02*
X009502Y005541D01*
X009502Y005539D02*
X009035Y005539D01*
X009035Y005536D02*
X009502Y005536D01*
X009502Y005534D02*
X009035Y005534D01*
X009035Y005531D02*
X009502Y005531D01*
X009502Y005529D02*
X009035Y005529D01*
X009035Y005526D02*
X009502Y005526D01*
X009502Y005524D02*
X009035Y005524D01*
X009035Y005522D02*
X009502Y005522D01*
X009502Y005519D02*
X009035Y005519D01*
X009035Y005517D02*
X009502Y005517D01*
X009502Y005514D02*
X009035Y005514D01*
X009035Y005512D02*
X009502Y005512D01*
X009502Y005509D02*
X009035Y005509D01*
X009035Y005507D02*
X009502Y005507D01*
X009502Y005505D02*
X009035Y005505D01*
X009036Y005497D02*
X009501Y005497D01*
X009501Y005495D02*
X009036Y005495D01*
X009036Y005492D02*
X009501Y005492D01*
X009501Y005490D02*
X009037Y005490D01*
X009037Y005487D02*
X009500Y005487D01*
X009500Y005485D02*
X009037Y005485D01*
X009038Y005483D02*
X009500Y005483D01*
X009500Y005480D02*
X009038Y005480D01*
X009038Y005478D02*
X009500Y005478D01*
X009499Y005475D02*
X009038Y005475D01*
X009039Y005473D02*
X009499Y005473D01*
X009499Y005470D02*
X009039Y005470D01*
X009039Y005468D02*
X009499Y005468D01*
X009498Y005466D02*
X009040Y005466D01*
X009040Y005463D02*
X009498Y005463D01*
X009498Y005461D02*
X009040Y005461D01*
X009040Y005458D02*
X009498Y005458D01*
X009498Y005456D02*
X009041Y005456D01*
X009041Y005453D02*
X009497Y005453D01*
X009496Y005451D02*
X009041Y005451D01*
X009042Y005448D02*
X009496Y005448D01*
X009495Y005446D02*
X009042Y005446D01*
X009043Y005444D02*
X009494Y005444D01*
X009493Y005441D02*
X009044Y005441D01*
X009045Y005439D02*
X009493Y005439D01*
X009492Y005436D02*
X009046Y005436D01*
X009047Y005434D02*
X009491Y005434D01*
X009491Y005431D02*
X009047Y005431D01*
X009048Y005429D02*
X009490Y005429D01*
X009489Y005427D02*
X009049Y005427D01*
X009050Y005424D02*
X009488Y005424D01*
X009488Y005422D02*
X009051Y005422D01*
X009052Y005419D02*
X009487Y005419D01*
X009486Y005417D02*
X009053Y005417D01*
X009054Y005414D02*
X009486Y005414D01*
X009485Y005412D02*
X009054Y005412D01*
X009055Y005409D02*
X009484Y005409D01*
X009482Y005407D02*
X009056Y005407D01*
X009057Y005405D02*
X009481Y005405D01*
X009480Y005402D02*
X009058Y005402D01*
X009059Y005400D02*
X009479Y005400D01*
X009477Y005397D02*
X009060Y005397D01*
X009061Y005395D02*
X009476Y005395D01*
X009475Y005392D02*
X009063Y005392D01*
X009065Y005390D02*
X009473Y005390D01*
X009472Y005388D02*
X009066Y005388D01*
X009068Y005385D02*
X009471Y005385D01*
X009470Y005383D02*
X009069Y005383D01*
X009071Y005380D02*
X009468Y005380D01*
X009467Y005378D02*
X009072Y005378D01*
X009074Y005375D02*
X009466Y005375D01*
X010166Y005458D02*
X010624Y005458D01*
X010624Y005456D02*
X010167Y005456D01*
X010167Y005453D02*
X010623Y005453D01*
X010622Y005451D02*
X010167Y005451D01*
X010167Y005448D02*
X010622Y005448D01*
X010621Y005446D02*
X010168Y005446D01*
X010168Y005448D02*
X010161Y005500D01*
X010162Y005500D02*
X010627Y005500D01*
X010628Y005500D02*
X010624Y005455D01*
X010611Y005411D01*
X010590Y005371D01*
X010561Y005336D01*
X010526Y005307D01*
X010486Y005285D01*
X010443Y005271D01*
X010398Y005266D01*
X010345Y005272D01*
X010295Y005289D01*
X010251Y005317D01*
X010539Y005317D01*
X010541Y005319D02*
X010248Y005319D01*
X010251Y005317D02*
X010213Y005354D01*
X010185Y005399D01*
X010168Y005448D01*
X010169Y005444D02*
X010620Y005444D01*
X010619Y005441D02*
X010170Y005441D01*
X010171Y005439D02*
X010619Y005439D01*
X010618Y005436D02*
X010172Y005436D01*
X010173Y005434D02*
X010617Y005434D01*
X010617Y005431D02*
X010173Y005431D01*
X010174Y005429D02*
X010616Y005429D01*
X010615Y005427D02*
X010175Y005427D01*
X010176Y005424D02*
X010614Y005424D01*
X010614Y005422D02*
X010177Y005422D01*
X010178Y005419D02*
X010613Y005419D01*
X010612Y005417D02*
X010179Y005417D01*
X010180Y005414D02*
X010612Y005414D01*
X010611Y005412D02*
X010180Y005412D01*
X010181Y005409D02*
X010610Y005409D01*
X010608Y005407D02*
X010182Y005407D01*
X010183Y005405D02*
X010607Y005405D01*
X010606Y005402D02*
X010184Y005402D01*
X010185Y005400D02*
X010605Y005400D01*
X010603Y005397D02*
X010186Y005397D01*
X010187Y005395D02*
X010602Y005395D01*
X010601Y005392D02*
X010189Y005392D01*
X010191Y005390D02*
X010599Y005390D01*
X010598Y005388D02*
X010192Y005388D01*
X010194Y005385D02*
X010597Y005385D01*
X010596Y005383D02*
X010195Y005383D01*
X010197Y005380D02*
X010594Y005380D01*
X010593Y005378D02*
X010198Y005378D01*
X010200Y005375D02*
X010592Y005375D01*
X010591Y005373D02*
X010201Y005373D01*
X010203Y005370D02*
X010589Y005370D01*
X010587Y005368D02*
X010204Y005368D01*
X010206Y005366D02*
X010585Y005366D01*
X010583Y005363D02*
X010208Y005363D01*
X010209Y005361D02*
X010581Y005361D01*
X010579Y005358D02*
X010211Y005358D01*
X010212Y005356D02*
X010577Y005356D01*
X010575Y005353D02*
X010214Y005353D01*
X010216Y005351D02*
X010573Y005351D01*
X010571Y005349D02*
X010219Y005349D01*
X010221Y005346D02*
X010569Y005346D01*
X010568Y005344D02*
X010224Y005344D01*
X010226Y005341D02*
X010566Y005341D01*
X010564Y005339D02*
X010229Y005339D01*
X010231Y005336D02*
X010562Y005336D01*
X010559Y005334D02*
X010234Y005334D01*
X010236Y005331D02*
X010556Y005331D01*
X010553Y005329D02*
X010239Y005329D01*
X010241Y005327D02*
X010550Y005327D01*
X010547Y005324D02*
X010243Y005324D01*
X010246Y005322D02*
X010544Y005322D01*
X010536Y005314D02*
X010255Y005314D01*
X010259Y005312D02*
X010533Y005312D01*
X010530Y005310D02*
X010263Y005310D01*
X010267Y005307D02*
X010527Y005307D01*
X010523Y005305D02*
X010270Y005305D01*
X010274Y005302D02*
X010518Y005302D01*
X010514Y005300D02*
X010278Y005300D01*
X010282Y005297D02*
X010509Y005297D01*
X010505Y005295D02*
X010286Y005295D01*
X010290Y005292D02*
X010501Y005292D01*
X010496Y005290D02*
X010294Y005290D01*
X010300Y005288D02*
X010492Y005288D01*
X010487Y005285D02*
X010307Y005285D01*
X010314Y005283D02*
X010480Y005283D01*
X010472Y005280D02*
X010321Y005280D01*
X010328Y005278D02*
X010464Y005278D01*
X010457Y005275D02*
X010335Y005275D01*
X010342Y005273D02*
X010449Y005273D01*
X010438Y005271D02*
X010358Y005271D01*
X010380Y005268D02*
X010415Y005268D01*
X010624Y005461D02*
X010166Y005461D01*
X010166Y005463D02*
X010624Y005463D01*
X010624Y005466D02*
X010166Y005466D01*
X010165Y005468D02*
X010625Y005468D01*
X010625Y005470D02*
X010165Y005470D01*
X010165Y005473D02*
X010625Y005473D01*
X010625Y005475D02*
X010164Y005475D01*
X010164Y005478D02*
X010626Y005478D01*
X010626Y005480D02*
X010164Y005480D01*
X010164Y005483D02*
X010626Y005483D01*
X010626Y005485D02*
X010163Y005485D01*
X010163Y005487D02*
X010626Y005487D01*
X010627Y005490D02*
X010163Y005490D01*
X010162Y005492D02*
X010627Y005492D01*
X010627Y005495D02*
X010162Y005495D01*
X010162Y005497D02*
X010627Y005497D01*
X010628Y005500D02*
X010628Y005927D01*
X010624Y005972D01*
X010611Y006017D01*
X010590Y006057D01*
X010562Y006093D01*
X010527Y006123D01*
X010487Y006145D01*
X010443Y006160D01*
X010398Y006165D01*
X010345Y006159D01*
X010295Y006141D01*
X010250Y006113D01*
X010213Y006075D01*
X010577Y006075D01*
X010579Y006072D02*
X010211Y006072D01*
X010210Y006070D02*
X010580Y006070D01*
X010582Y006068D02*
X010208Y006068D01*
X010207Y006065D02*
X010584Y006065D01*
X010586Y006063D02*
X010205Y006063D01*
X010203Y006060D02*
X010588Y006060D01*
X010590Y006058D02*
X010202Y006058D01*
X010200Y006055D02*
X010591Y006055D01*
X010593Y006053D02*
X010199Y006053D01*
X010197Y006050D02*
X010594Y006050D01*
X010595Y006048D02*
X010196Y006048D01*
X010194Y006046D02*
X010596Y006046D01*
X010598Y006043D02*
X010193Y006043D01*
X010191Y006041D02*
X010599Y006041D01*
X010600Y006038D02*
X010190Y006038D01*
X010188Y006036D02*
X010601Y006036D01*
X010603Y006033D02*
X010187Y006033D01*
X010185Y006031D02*
X010604Y006031D01*
X010605Y006029D02*
X010184Y006029D01*
X010184Y006030D02*
X010213Y006075D01*
X010215Y006077D02*
X010575Y006077D01*
X010573Y006080D02*
X010217Y006080D01*
X010220Y006082D02*
X010571Y006082D01*
X010569Y006085D02*
X010222Y006085D01*
X010225Y006087D02*
X010567Y006087D01*
X010565Y006089D02*
X010227Y006089D01*
X010230Y006092D02*
X010563Y006092D01*
X010561Y006094D02*
X010232Y006094D01*
X010234Y006097D02*
X010558Y006097D01*
X010555Y006099D02*
X010237Y006099D01*
X010239Y006102D02*
X010552Y006102D01*
X010549Y006104D02*
X010242Y006104D01*
X010244Y006107D02*
X010546Y006107D01*
X010544Y006109D02*
X010246Y006109D01*
X010249Y006111D02*
X010541Y006111D01*
X010538Y006114D02*
X010252Y006114D01*
X010256Y006116D02*
X010535Y006116D01*
X010532Y006119D02*
X010260Y006119D01*
X010264Y006121D02*
X010529Y006121D01*
X010526Y006124D02*
X010267Y006124D01*
X010271Y006126D02*
X010522Y006126D01*
X010517Y006128D02*
X010275Y006128D01*
X010279Y006131D02*
X010513Y006131D01*
X010509Y006133D02*
X010283Y006133D01*
X010287Y006136D02*
X010504Y006136D01*
X010500Y006138D02*
X010290Y006138D01*
X010294Y006141D02*
X010496Y006141D01*
X010491Y006143D02*
X010301Y006143D01*
X010308Y006146D02*
X010487Y006146D01*
X010479Y006148D02*
X010315Y006148D01*
X010321Y006150D02*
X010472Y006150D01*
X010464Y006153D02*
X010328Y006153D01*
X010335Y006155D02*
X010457Y006155D01*
X010449Y006158D02*
X010342Y006158D01*
X010357Y006160D02*
X010438Y006160D01*
X010417Y006163D02*
X010378Y006163D01*
X010184Y006030D02*
X010167Y005980D01*
X010622Y005980D01*
X010621Y005982D02*
X010168Y005982D01*
X010167Y005980D02*
X010161Y005927D01*
X010161Y005500D01*
X010161Y005502D02*
X010628Y005502D01*
X010628Y005505D02*
X010161Y005505D01*
X010161Y005507D02*
X010628Y005507D01*
X010628Y005509D02*
X010161Y005509D01*
X010161Y005512D02*
X010628Y005512D01*
X010628Y005514D02*
X010161Y005514D01*
X010161Y005517D02*
X010628Y005517D01*
X010628Y005519D02*
X010161Y005519D01*
X010161Y005522D02*
X010628Y005522D01*
X010628Y005524D02*
X010161Y005524D01*
X010161Y005526D02*
X010628Y005526D01*
X010628Y005529D02*
X010161Y005529D01*
X010161Y005531D02*
X010628Y005531D01*
X010628Y005534D02*
X010161Y005534D01*
X010161Y005536D02*
X010628Y005536D01*
X010628Y005539D02*
X010161Y005539D01*
X010161Y005541D02*
X010628Y005541D01*
X010628Y005544D02*
X010161Y005544D01*
X010161Y005546D02*
X010628Y005546D01*
X010628Y005548D02*
X010161Y005548D01*
X010161Y005551D02*
X010628Y005551D01*
X010628Y005553D02*
X010161Y005553D01*
X010161Y005556D02*
X010628Y005556D01*
X010628Y005558D02*
X010161Y005558D01*
X010161Y005561D02*
X010628Y005561D01*
X010628Y005563D02*
X010161Y005563D01*
X010161Y005565D02*
X010628Y005565D01*
X010628Y005568D02*
X010161Y005568D01*
X010161Y005570D02*
X010628Y005570D01*
X010628Y005573D02*
X010161Y005573D01*
X010161Y005575D02*
X010628Y005575D01*
X010628Y005578D02*
X010161Y005578D01*
X010161Y005580D02*
X010628Y005580D01*
X010628Y005583D02*
X010161Y005583D01*
X010161Y005585D02*
X010628Y005585D01*
X010628Y005587D02*
X010161Y005587D01*
X010161Y005590D02*
X010628Y005590D01*
X010628Y005592D02*
X010161Y005592D01*
X010161Y005595D02*
X010628Y005595D01*
X010628Y005597D02*
X010161Y005597D01*
X010161Y005600D02*
X010628Y005600D01*
X010628Y005602D02*
X010161Y005602D01*
X010161Y005604D02*
X010628Y005604D01*
X010628Y005607D02*
X010161Y005607D01*
X010161Y005609D02*
X010628Y005609D01*
X010628Y005612D02*
X010161Y005612D01*
X010161Y005614D02*
X010628Y005614D01*
X010628Y005617D02*
X010161Y005617D01*
X010161Y005619D02*
X010628Y005619D01*
X010628Y005622D02*
X010161Y005622D01*
X010161Y005624D02*
X010628Y005624D01*
X010628Y005626D02*
X010161Y005626D01*
X010161Y005629D02*
X010628Y005629D01*
X010628Y005631D02*
X010161Y005631D01*
X010161Y005634D02*
X010628Y005634D01*
X010628Y005636D02*
X010161Y005636D01*
X010161Y005639D02*
X010628Y005639D01*
X010628Y005641D02*
X010161Y005641D01*
X010161Y005643D02*
X010628Y005643D01*
X010628Y005646D02*
X010161Y005646D01*
X010161Y005648D02*
X010628Y005648D01*
X010628Y005651D02*
X010161Y005651D01*
X010161Y005653D02*
X010628Y005653D01*
X010628Y005656D02*
X010161Y005656D01*
X010161Y005658D02*
X010628Y005658D01*
X010628Y005661D02*
X010161Y005661D01*
X010161Y005663D02*
X010628Y005663D01*
X010628Y005665D02*
X010161Y005665D01*
X010161Y005668D02*
X010628Y005668D01*
X010628Y005670D02*
X010161Y005670D01*
X010161Y005673D02*
X010628Y005673D01*
X010628Y005675D02*
X010161Y005675D01*
X010161Y005678D02*
X010628Y005678D01*
X010628Y005680D02*
X010161Y005680D01*
X010161Y005682D02*
X010628Y005682D01*
X010628Y005685D02*
X010161Y005685D01*
X010161Y005687D02*
X010628Y005687D01*
X010628Y005690D02*
X010161Y005690D01*
X010161Y005692D02*
X010628Y005692D01*
X010628Y005695D02*
X010161Y005695D01*
X010161Y005697D02*
X010628Y005697D01*
X010628Y005700D02*
X010161Y005700D01*
X010161Y005702D02*
X010628Y005702D01*
X010628Y005704D02*
X010161Y005704D01*
X010161Y005707D02*
X010628Y005707D01*
X010628Y005709D02*
X010161Y005709D01*
X010161Y005712D02*
X010628Y005712D01*
X010628Y005714D02*
X010161Y005714D01*
X010161Y005717D02*
X010628Y005717D01*
X010628Y005719D02*
X010161Y005719D01*
X010161Y005721D02*
X010628Y005721D01*
X010628Y005724D02*
X010161Y005724D01*
X010161Y005726D02*
X010628Y005726D01*
X010628Y005729D02*
X010161Y005729D01*
X010161Y005731D02*
X010628Y005731D01*
X010628Y005734D02*
X010161Y005734D01*
X010161Y005736D02*
X010628Y005736D01*
X010628Y005739D02*
X010161Y005739D01*
X010161Y005741D02*
X010628Y005741D01*
X010628Y005743D02*
X010161Y005743D01*
X010161Y005746D02*
X010628Y005746D01*
X010628Y005748D02*
X010161Y005748D01*
X010161Y005751D02*
X010628Y005751D01*
X010628Y005753D02*
X010161Y005753D01*
X010161Y005756D02*
X010628Y005756D01*
X010628Y005758D02*
X010161Y005758D01*
X010161Y005760D02*
X010628Y005760D01*
X010628Y005763D02*
X010161Y005763D01*
X010161Y005765D02*
X010628Y005765D01*
X010628Y005768D02*
X010161Y005768D01*
X010161Y005770D02*
X010628Y005770D01*
X010628Y005773D02*
X010161Y005773D01*
X010161Y005775D02*
X010628Y005775D01*
X010628Y005778D02*
X010161Y005778D01*
X010161Y005780D02*
X010628Y005780D01*
X010628Y005782D02*
X010161Y005782D01*
X010161Y005785D02*
X010628Y005785D01*
X010628Y005787D02*
X010161Y005787D01*
X010161Y005790D02*
X010628Y005790D01*
X010628Y005792D02*
X010161Y005792D01*
X010161Y005795D02*
X010628Y005795D01*
X010628Y005797D02*
X010161Y005797D01*
X010161Y005799D02*
X010628Y005799D01*
X010628Y005802D02*
X010161Y005802D01*
X010161Y005804D02*
X010628Y005804D01*
X010628Y005807D02*
X010161Y005807D01*
X010161Y005809D02*
X010628Y005809D01*
X010628Y005812D02*
X010161Y005812D01*
X010161Y005814D02*
X010628Y005814D01*
X010628Y005817D02*
X010161Y005817D01*
X010161Y005819D02*
X010628Y005819D01*
X010628Y005821D02*
X010161Y005821D01*
X010161Y005824D02*
X010628Y005824D01*
X010628Y005826D02*
X010161Y005826D01*
X010161Y005829D02*
X010628Y005829D01*
X010628Y005831D02*
X010161Y005831D01*
X010161Y005834D02*
X010628Y005834D01*
X010628Y005836D02*
X010161Y005836D01*
X010161Y005838D02*
X010628Y005838D01*
X010628Y005841D02*
X010161Y005841D01*
X010161Y005843D02*
X010628Y005843D01*
X010628Y005846D02*
X010161Y005846D01*
X010161Y005848D02*
X010628Y005848D01*
X010628Y005851D02*
X010161Y005851D01*
X010161Y005853D02*
X010628Y005853D01*
X010628Y005855D02*
X010161Y005855D01*
X010161Y005858D02*
X010628Y005858D01*
X010628Y005860D02*
X010161Y005860D01*
X010161Y005863D02*
X010628Y005863D01*
X010628Y005865D02*
X010161Y005865D01*
X010161Y005868D02*
X010628Y005868D01*
X010628Y005870D02*
X010161Y005870D01*
X010161Y005873D02*
X010628Y005873D01*
X010628Y005875D02*
X010161Y005875D01*
X010161Y005877D02*
X010628Y005877D01*
X010628Y005880D02*
X010161Y005880D01*
X010161Y005882D02*
X010628Y005882D01*
X010628Y005885D02*
X010161Y005885D01*
X010161Y005887D02*
X010628Y005887D01*
X010628Y005890D02*
X010161Y005890D01*
X010161Y005892D02*
X010628Y005892D01*
X010628Y005894D02*
X010161Y005894D01*
X010161Y005897D02*
X010628Y005897D01*
X010628Y005899D02*
X010161Y005899D01*
X010161Y005902D02*
X010628Y005902D01*
X010628Y005904D02*
X010161Y005904D01*
X010161Y005907D02*
X010628Y005907D01*
X010628Y005909D02*
X010161Y005909D01*
X010161Y005912D02*
X010628Y005912D01*
X010628Y005914D02*
X010161Y005914D01*
X010161Y005916D02*
X010628Y005916D01*
X010628Y005919D02*
X010161Y005919D01*
X010161Y005921D02*
X010628Y005921D01*
X010628Y005924D02*
X010161Y005924D01*
X010161Y005926D02*
X010628Y005926D01*
X010627Y005929D02*
X010162Y005929D01*
X010162Y005931D02*
X010627Y005931D01*
X010627Y005933D02*
X010162Y005933D01*
X010162Y005936D02*
X010627Y005936D01*
X010627Y005938D02*
X010163Y005938D01*
X010163Y005941D02*
X010626Y005941D01*
X010626Y005943D02*
X010163Y005943D01*
X010163Y005946D02*
X010626Y005946D01*
X010626Y005948D02*
X010164Y005948D01*
X010164Y005951D02*
X010626Y005951D01*
X010625Y005953D02*
X010164Y005953D01*
X010165Y005955D02*
X010625Y005955D01*
X010625Y005958D02*
X010165Y005958D01*
X010165Y005960D02*
X010625Y005960D01*
X010625Y005963D02*
X010165Y005963D01*
X010166Y005965D02*
X010624Y005965D01*
X010624Y005968D02*
X010166Y005968D01*
X010166Y005970D02*
X010624Y005970D01*
X010624Y005972D02*
X010166Y005972D01*
X010167Y005975D02*
X010623Y005975D01*
X010622Y005977D02*
X010167Y005977D01*
X010169Y005985D02*
X010620Y005985D01*
X010620Y005987D02*
X010170Y005987D01*
X010171Y005990D02*
X010619Y005990D01*
X010618Y005992D02*
X010171Y005992D01*
X010172Y005994D02*
X010618Y005994D01*
X010617Y005997D02*
X010173Y005997D01*
X010174Y005999D02*
X010616Y005999D01*
X010616Y006002D02*
X010175Y006002D01*
X010176Y006004D02*
X010615Y006004D01*
X010614Y006007D02*
X010177Y006007D01*
X010177Y006009D02*
X010613Y006009D01*
X010613Y006011D02*
X010178Y006011D01*
X010179Y006014D02*
X010612Y006014D01*
X010611Y006016D02*
X010180Y006016D01*
X010181Y006019D02*
X010610Y006019D01*
X010609Y006021D02*
X010182Y006021D01*
X010182Y006024D02*
X010608Y006024D01*
X010606Y006026D02*
X010183Y006026D01*
X010363Y004547D02*
X010432Y004547D01*
X010443Y004545D02*
X010487Y004531D01*
X010527Y004509D01*
X010562Y004479D01*
X010590Y004443D01*
X010611Y004402D01*
X010624Y004358D01*
X010628Y004313D01*
X010161Y004313D01*
X010167Y004365D01*
X010184Y004416D01*
X010213Y004461D01*
X010576Y004461D01*
X010578Y004459D02*
X010212Y004459D01*
X010213Y004461D02*
X010250Y004498D01*
X010295Y004527D01*
X010345Y004545D01*
X010398Y004551D01*
X010443Y004545D01*
X010447Y004544D02*
X010344Y004544D01*
X010337Y004542D02*
X010454Y004542D01*
X010462Y004539D02*
X010330Y004539D01*
X010323Y004537D02*
X010469Y004537D01*
X010477Y004535D02*
X010317Y004535D01*
X010310Y004532D02*
X010485Y004532D01*
X010490Y004530D02*
X010303Y004530D01*
X010296Y004527D02*
X010494Y004527D01*
X010499Y004525D02*
X010292Y004525D01*
X010288Y004522D02*
X010503Y004522D01*
X010507Y004520D02*
X010284Y004520D01*
X010280Y004517D02*
X010512Y004517D01*
X010516Y004515D02*
X010276Y004515D01*
X010272Y004513D02*
X010521Y004513D01*
X010525Y004510D02*
X010269Y004510D01*
X010265Y004508D02*
X010528Y004508D01*
X010531Y004505D02*
X010261Y004505D01*
X010257Y004503D02*
X010534Y004503D01*
X010537Y004500D02*
X010253Y004500D01*
X010250Y004498D02*
X010540Y004498D01*
X010543Y004496D02*
X010247Y004496D01*
X010245Y004493D02*
X010546Y004493D01*
X010549Y004491D02*
X010242Y004491D01*
X010240Y004488D02*
X010551Y004488D01*
X010554Y004486D02*
X010237Y004486D01*
X010235Y004483D02*
X010557Y004483D01*
X010560Y004481D02*
X010233Y004481D01*
X010230Y004478D02*
X010563Y004478D01*
X010564Y004476D02*
X010228Y004476D01*
X010225Y004474D02*
X010566Y004474D01*
X010568Y004471D02*
X010223Y004471D01*
X010221Y004469D02*
X010570Y004469D01*
X010572Y004466D02*
X010218Y004466D01*
X010216Y004464D02*
X010574Y004464D01*
X010580Y004457D02*
X010210Y004457D01*
X010208Y004454D02*
X010582Y004454D01*
X010584Y004452D02*
X010207Y004452D01*
X010205Y004449D02*
X010586Y004449D01*
X010588Y004447D02*
X010204Y004447D01*
X010202Y004444D02*
X010590Y004444D01*
X010591Y004442D02*
X010201Y004442D01*
X010199Y004439D02*
X010592Y004439D01*
X010594Y004437D02*
X010198Y004437D01*
X010196Y004435D02*
X010595Y004435D01*
X010596Y004432D02*
X010195Y004432D01*
X010193Y004430D02*
X010597Y004430D01*
X010599Y004427D02*
X010192Y004427D01*
X010190Y004425D02*
X010600Y004425D01*
X010601Y004422D02*
X010189Y004422D01*
X010187Y004420D02*
X010602Y004420D01*
X010604Y004418D02*
X010186Y004418D01*
X010184Y004415D02*
X010605Y004415D01*
X010606Y004413D02*
X010183Y004413D01*
X010183Y004410D02*
X010607Y004410D01*
X010609Y004408D02*
X010182Y004408D01*
X010181Y004405D02*
X010610Y004405D01*
X010611Y004403D02*
X010180Y004403D01*
X010179Y004400D02*
X010612Y004400D01*
X010613Y004398D02*
X010178Y004398D01*
X010178Y004396D02*
X010613Y004396D01*
X010614Y004393D02*
X010177Y004393D01*
X010176Y004391D02*
X010615Y004391D01*
X010615Y004388D02*
X010175Y004388D01*
X010174Y004386D02*
X010616Y004386D01*
X010617Y004383D02*
X010173Y004383D01*
X010173Y004381D02*
X010617Y004381D01*
X010618Y004379D02*
X010172Y004379D01*
X010171Y004376D02*
X010619Y004376D01*
X010619Y004374D02*
X010170Y004374D01*
X010169Y004371D02*
X010620Y004371D01*
X010621Y004369D02*
X010168Y004369D01*
X010167Y004366D02*
X010622Y004366D01*
X010622Y004364D02*
X010167Y004364D01*
X010167Y004361D02*
X010623Y004361D01*
X010624Y004359D02*
X010166Y004359D01*
X010166Y004357D02*
X010624Y004357D01*
X010624Y004354D02*
X010166Y004354D01*
X010166Y004352D02*
X010624Y004352D01*
X010625Y004349D02*
X010165Y004349D01*
X010165Y004347D02*
X010625Y004347D01*
X010625Y004344D02*
X010165Y004344D01*
X010165Y004342D02*
X010625Y004342D01*
X010625Y004340D02*
X010164Y004340D01*
X010164Y004337D02*
X010626Y004337D01*
X010626Y004335D02*
X010164Y004335D01*
X010164Y004332D02*
X010626Y004332D01*
X010626Y004330D02*
X010163Y004330D01*
X010163Y004327D02*
X010626Y004327D01*
X010627Y004325D02*
X010163Y004325D01*
X010162Y004322D02*
X010627Y004322D01*
X010627Y004320D02*
X010162Y004320D01*
X010162Y004318D02*
X010627Y004318D01*
X010627Y004315D02*
X010162Y004315D01*
X010161Y004313D02*
X010161Y003886D01*
X010628Y003886D01*
X010624Y003841D01*
X010611Y003797D01*
X010590Y003757D01*
X010202Y003757D01*
X010201Y003759D02*
X010591Y003759D01*
X010590Y003757D02*
X010561Y003722D01*
X010526Y003692D01*
X010486Y003671D01*
X010443Y003657D01*
X010398Y003652D01*
X010345Y003658D01*
X010295Y003675D01*
X010251Y003703D01*
X010213Y003740D01*
X010576Y003740D01*
X010578Y003742D02*
X010212Y003742D01*
X010213Y003740D02*
X010185Y003784D01*
X010168Y003834D01*
X010161Y003886D01*
X010162Y003884D02*
X010627Y003884D01*
X010628Y003886D02*
X010628Y004313D01*
X010628Y004310D02*
X010161Y004310D01*
X010161Y004308D02*
X010628Y004308D01*
X010628Y004305D02*
X010161Y004305D01*
X010161Y004303D02*
X010628Y004303D01*
X010628Y004301D02*
X010161Y004301D01*
X010161Y004298D02*
X010628Y004298D01*
X010628Y004296D02*
X010161Y004296D01*
X010161Y004293D02*
X010628Y004293D01*
X010628Y004291D02*
X010161Y004291D01*
X010161Y004288D02*
X010628Y004288D01*
X010628Y004286D02*
X010161Y004286D01*
X010161Y004283D02*
X010628Y004283D01*
X010628Y004281D02*
X010161Y004281D01*
X010161Y004279D02*
X010628Y004279D01*
X010628Y004276D02*
X010161Y004276D01*
X010161Y004274D02*
X010628Y004274D01*
X010628Y004271D02*
X010161Y004271D01*
X010161Y004269D02*
X010628Y004269D01*
X010628Y004266D02*
X010161Y004266D01*
X010161Y004264D02*
X010628Y004264D01*
X010628Y004262D02*
X010161Y004262D01*
X010161Y004259D02*
X010628Y004259D01*
X010628Y004257D02*
X010161Y004257D01*
X010161Y004254D02*
X010628Y004254D01*
X010628Y004252D02*
X010161Y004252D01*
X010161Y004249D02*
X010628Y004249D01*
X010628Y004247D02*
X010161Y004247D01*
X010161Y004244D02*
X010628Y004244D01*
X010628Y004242D02*
X010161Y004242D01*
X010161Y004240D02*
X010628Y004240D01*
X010628Y004237D02*
X010161Y004237D01*
X010161Y004235D02*
X010628Y004235D01*
X010628Y004232D02*
X010161Y004232D01*
X010161Y004230D02*
X010628Y004230D01*
X010628Y004227D02*
X010161Y004227D01*
X010161Y004225D02*
X010628Y004225D01*
X010628Y004223D02*
X010161Y004223D01*
X010161Y004220D02*
X010628Y004220D01*
X010628Y004218D02*
X010161Y004218D01*
X010161Y004215D02*
X010628Y004215D01*
X010628Y004213D02*
X010161Y004213D01*
X010161Y004210D02*
X010628Y004210D01*
X010628Y004208D02*
X010161Y004208D01*
X010161Y004205D02*
X010628Y004205D01*
X010628Y004203D02*
X010161Y004203D01*
X010161Y004201D02*
X010628Y004201D01*
X010628Y004198D02*
X010161Y004198D01*
X010161Y004196D02*
X010628Y004196D01*
X010628Y004193D02*
X010161Y004193D01*
X010161Y004191D02*
X010628Y004191D01*
X010628Y004188D02*
X010161Y004188D01*
X010161Y004186D02*
X010628Y004186D01*
X010628Y004184D02*
X010161Y004184D01*
X010161Y004181D02*
X010628Y004181D01*
X010628Y004179D02*
X010161Y004179D01*
X010161Y004176D02*
X010628Y004176D01*
X010628Y004174D02*
X010161Y004174D01*
X010161Y004171D02*
X010628Y004171D01*
X010628Y004169D02*
X010161Y004169D01*
X010161Y004166D02*
X010628Y004166D01*
X010628Y004164D02*
X010161Y004164D01*
X010161Y004162D02*
X010628Y004162D01*
X010628Y004159D02*
X010161Y004159D01*
X010161Y004157D02*
X010628Y004157D01*
X010628Y004154D02*
X010161Y004154D01*
X010161Y004152D02*
X010628Y004152D01*
X010628Y004149D02*
X010161Y004149D01*
X010161Y004147D02*
X010628Y004147D01*
X010628Y004145D02*
X010161Y004145D01*
X010161Y004142D02*
X010628Y004142D01*
X010628Y004140D02*
X010161Y004140D01*
X010161Y004137D02*
X010628Y004137D01*
X010628Y004135D02*
X010161Y004135D01*
X010161Y004132D02*
X010628Y004132D01*
X010628Y004130D02*
X010161Y004130D01*
X010161Y004127D02*
X010628Y004127D01*
X010628Y004125D02*
X010161Y004125D01*
X010161Y004123D02*
X010628Y004123D01*
X010628Y004120D02*
X010161Y004120D01*
X010161Y004118D02*
X010628Y004118D01*
X010628Y004115D02*
X010161Y004115D01*
X010161Y004113D02*
X010628Y004113D01*
X010628Y004110D02*
X010161Y004110D01*
X010161Y004108D02*
X010628Y004108D01*
X010628Y004106D02*
X010161Y004106D01*
X010161Y004103D02*
X010628Y004103D01*
X010628Y004101D02*
X010161Y004101D01*
X010161Y004098D02*
X010628Y004098D01*
X010628Y004096D02*
X010161Y004096D01*
X010161Y004093D02*
X010628Y004093D01*
X010628Y004091D02*
X010161Y004091D01*
X010161Y004088D02*
X010628Y004088D01*
X010628Y004086D02*
X010161Y004086D01*
X010161Y004084D02*
X010628Y004084D01*
X010628Y004081D02*
X010161Y004081D01*
X010161Y004079D02*
X010628Y004079D01*
X010628Y004076D02*
X010161Y004076D01*
X010161Y004074D02*
X010628Y004074D01*
X010628Y004071D02*
X010161Y004071D01*
X010161Y004069D02*
X010628Y004069D01*
X010628Y004067D02*
X010161Y004067D01*
X010161Y004064D02*
X010628Y004064D01*
X010628Y004062D02*
X010161Y004062D01*
X010161Y004059D02*
X010628Y004059D01*
X010628Y004057D02*
X010161Y004057D01*
X010161Y004054D02*
X010628Y004054D01*
X010628Y004052D02*
X010161Y004052D01*
X010161Y004049D02*
X010628Y004049D01*
X010628Y004047D02*
X010161Y004047D01*
X010161Y004045D02*
X010628Y004045D01*
X010628Y004042D02*
X010161Y004042D01*
X010161Y004040D02*
X010628Y004040D01*
X010628Y004037D02*
X010161Y004037D01*
X010161Y004035D02*
X010628Y004035D01*
X010628Y004032D02*
X010161Y004032D01*
X010161Y004030D02*
X010628Y004030D01*
X010628Y004028D02*
X010161Y004028D01*
X010161Y004025D02*
X010628Y004025D01*
X010628Y004023D02*
X010161Y004023D01*
X010161Y004020D02*
X010628Y004020D01*
X010628Y004018D02*
X010161Y004018D01*
X010161Y004015D02*
X010628Y004015D01*
X010628Y004013D02*
X010161Y004013D01*
X010161Y004010D02*
X010628Y004010D01*
X010628Y004008D02*
X010161Y004008D01*
X010161Y004006D02*
X010628Y004006D01*
X010628Y004003D02*
X010161Y004003D01*
X010161Y004001D02*
X010628Y004001D01*
X010628Y003998D02*
X010161Y003998D01*
X010161Y003996D02*
X010628Y003996D01*
X010628Y003993D02*
X010161Y003993D01*
X010161Y003991D02*
X010628Y003991D01*
X010628Y003989D02*
X010161Y003989D01*
X010161Y003986D02*
X010628Y003986D01*
X010628Y003984D02*
X010161Y003984D01*
X010161Y003981D02*
X010628Y003981D01*
X010628Y003979D02*
X010161Y003979D01*
X010161Y003976D02*
X010628Y003976D01*
X010628Y003974D02*
X010161Y003974D01*
X010161Y003972D02*
X010628Y003972D01*
X010628Y003969D02*
X010161Y003969D01*
X010161Y003967D02*
X010628Y003967D01*
X010628Y003964D02*
X010161Y003964D01*
X010161Y003962D02*
X010628Y003962D01*
X010628Y003959D02*
X010161Y003959D01*
X010161Y003957D02*
X010628Y003957D01*
X010628Y003954D02*
X010161Y003954D01*
X010161Y003952D02*
X010628Y003952D01*
X010628Y003950D02*
X010161Y003950D01*
X010161Y003947D02*
X010628Y003947D01*
X010628Y003945D02*
X010161Y003945D01*
X010161Y003942D02*
X010628Y003942D01*
X010628Y003940D02*
X010161Y003940D01*
X010161Y003937D02*
X010628Y003937D01*
X010628Y003935D02*
X010161Y003935D01*
X010161Y003933D02*
X010628Y003933D01*
X010628Y003930D02*
X010161Y003930D01*
X010161Y003928D02*
X010628Y003928D01*
X010628Y003925D02*
X010161Y003925D01*
X010161Y003923D02*
X010628Y003923D01*
X010628Y003920D02*
X010161Y003920D01*
X010161Y003918D02*
X010628Y003918D01*
X010628Y003915D02*
X010161Y003915D01*
X010161Y003913D02*
X010628Y003913D01*
X010628Y003911D02*
X010161Y003911D01*
X010161Y003908D02*
X010628Y003908D01*
X010628Y003906D02*
X010161Y003906D01*
X010161Y003903D02*
X010628Y003903D01*
X010628Y003901D02*
X010161Y003901D01*
X010161Y003898D02*
X010628Y003898D01*
X010628Y003896D02*
X010161Y003896D01*
X010161Y003894D02*
X010628Y003894D01*
X010628Y003891D02*
X010161Y003891D01*
X010161Y003889D02*
X010628Y003889D01*
X010627Y003881D02*
X010162Y003881D01*
X010162Y003879D02*
X010627Y003879D01*
X010627Y003876D02*
X010163Y003876D01*
X010163Y003874D02*
X010626Y003874D01*
X010626Y003872D02*
X010163Y003872D01*
X010163Y003869D02*
X010626Y003869D01*
X010626Y003867D02*
X010164Y003867D01*
X010164Y003864D02*
X010626Y003864D01*
X010625Y003862D02*
X010164Y003862D01*
X010165Y003859D02*
X010625Y003859D01*
X010625Y003857D02*
X010165Y003857D01*
X010165Y003855D02*
X010625Y003855D01*
X010625Y003852D02*
X010165Y003852D01*
X010166Y003850D02*
X010624Y003850D01*
X010624Y003847D02*
X010166Y003847D01*
X010166Y003845D02*
X010624Y003845D01*
X010624Y003842D02*
X010167Y003842D01*
X010167Y003840D02*
X010623Y003840D01*
X010622Y003837D02*
X010167Y003837D01*
X010167Y003835D02*
X010622Y003835D01*
X010621Y003833D02*
X010168Y003833D01*
X010169Y003830D02*
X010620Y003830D01*
X010620Y003828D02*
X010170Y003828D01*
X010171Y003825D02*
X010619Y003825D01*
X010618Y003823D02*
X010171Y003823D01*
X010172Y003820D02*
X010617Y003820D01*
X010617Y003818D02*
X010173Y003818D01*
X010174Y003816D02*
X010616Y003816D01*
X010615Y003813D02*
X010175Y003813D01*
X010176Y003811D02*
X010615Y003811D01*
X010614Y003808D02*
X010177Y003808D01*
X010178Y003806D02*
X010613Y003806D01*
X010612Y003803D02*
X010178Y003803D01*
X010179Y003801D02*
X010612Y003801D01*
X010611Y003798D02*
X010180Y003798D01*
X010181Y003796D02*
X010610Y003796D01*
X010609Y003794D02*
X010182Y003794D01*
X010183Y003791D02*
X010607Y003791D01*
X010606Y003789D02*
X010184Y003789D01*
X010184Y003786D02*
X010605Y003786D01*
X010604Y003784D02*
X010185Y003784D01*
X010187Y003781D02*
X010602Y003781D01*
X010601Y003779D02*
X010189Y003779D01*
X010190Y003777D02*
X010600Y003777D01*
X010599Y003774D02*
X010192Y003774D01*
X010193Y003772D02*
X010597Y003772D01*
X010596Y003769D02*
X010195Y003769D01*
X010196Y003767D02*
X010595Y003767D01*
X010593Y003764D02*
X010198Y003764D01*
X010199Y003762D02*
X010592Y003762D01*
X010588Y003755D02*
X010204Y003755D01*
X010206Y003752D02*
X010586Y003752D01*
X010584Y003750D02*
X010207Y003750D01*
X010209Y003747D02*
X010582Y003747D01*
X010580Y003745D02*
X010210Y003745D01*
X010216Y003738D02*
X010574Y003738D01*
X010572Y003735D02*
X010218Y003735D01*
X010221Y003733D02*
X010570Y003733D01*
X010568Y003730D02*
X010223Y003730D01*
X010226Y003728D02*
X010566Y003728D01*
X010564Y003725D02*
X010228Y003725D01*
X010230Y003723D02*
X010562Y003723D01*
X010560Y003720D02*
X010233Y003720D01*
X010235Y003718D02*
X010557Y003718D01*
X010554Y003716D02*
X010238Y003716D01*
X010240Y003713D02*
X010551Y003713D01*
X010548Y003711D02*
X010243Y003711D01*
X010245Y003708D02*
X010545Y003708D01*
X010542Y003706D02*
X010248Y003706D01*
X010250Y003703D02*
X010539Y003703D01*
X010536Y003701D02*
X010254Y003701D01*
X010258Y003699D02*
X010534Y003699D01*
X010531Y003696D02*
X010261Y003696D01*
X010265Y003694D02*
X010528Y003694D01*
X010524Y003691D02*
X010269Y003691D01*
X010273Y003689D02*
X010520Y003689D01*
X010515Y003686D02*
X010277Y003686D01*
X010281Y003684D02*
X010511Y003684D01*
X010506Y003681D02*
X010285Y003681D01*
X010289Y003679D02*
X010502Y003679D01*
X010497Y003677D02*
X010293Y003677D01*
X010298Y003674D02*
X010493Y003674D01*
X010488Y003672D02*
X010305Y003672D01*
X010312Y003669D02*
X010482Y003669D01*
X010474Y003667D02*
X010319Y003667D01*
X010326Y003664D02*
X010467Y003664D01*
X010459Y003662D02*
X010333Y003662D01*
X010340Y003660D02*
X010451Y003660D01*
X010443Y003657D02*
X010351Y003657D01*
X010374Y003655D02*
X010422Y003655D01*
X010399Y003652D02*
X010396Y003652D01*
X010384Y004549D02*
X010411Y004549D01*
X009498Y004358D02*
X009502Y004313D01*
X009035Y004313D01*
X009041Y004365D01*
X009058Y004416D01*
X009087Y004461D01*
X009450Y004461D01*
X009452Y004459D02*
X009086Y004459D01*
X009087Y004461D02*
X009124Y004498D01*
X009169Y004527D01*
X009219Y004545D01*
X009272Y004551D01*
X009317Y004545D01*
X009361Y004531D01*
X009401Y004509D01*
X009436Y004479D01*
X009464Y004443D01*
X009485Y004402D01*
X009498Y004358D01*
X009498Y004359D02*
X009040Y004359D01*
X009040Y004357D02*
X009498Y004357D01*
X009498Y004354D02*
X009040Y004354D01*
X009040Y004352D02*
X009498Y004352D01*
X009499Y004349D02*
X009039Y004349D01*
X009039Y004347D02*
X009499Y004347D01*
X009499Y004344D02*
X009039Y004344D01*
X009039Y004342D02*
X009499Y004342D01*
X009499Y004340D02*
X009038Y004340D01*
X009038Y004337D02*
X009500Y004337D01*
X009500Y004335D02*
X009038Y004335D01*
X009038Y004332D02*
X009500Y004332D01*
X009500Y004330D02*
X009037Y004330D01*
X009037Y004327D02*
X009500Y004327D01*
X009501Y004325D02*
X009037Y004325D01*
X009037Y004322D02*
X009501Y004322D01*
X009501Y004320D02*
X009036Y004320D01*
X009036Y004318D02*
X009501Y004318D01*
X009501Y004315D02*
X009036Y004315D01*
X009035Y004313D02*
X009035Y003886D01*
X009502Y003886D01*
X009498Y003841D01*
X009485Y003797D01*
X009464Y003757D01*
X009076Y003757D01*
X009075Y003759D02*
X009465Y003759D01*
X009464Y003757D02*
X009435Y003722D01*
X009400Y003692D01*
X009360Y003671D01*
X009317Y003657D01*
X009272Y003652D01*
X009219Y003658D01*
X009169Y003675D01*
X009125Y003703D01*
X009087Y003740D01*
X009450Y003740D01*
X009452Y003742D02*
X009086Y003742D01*
X009087Y003740D02*
X009059Y003784D01*
X009042Y003834D01*
X009035Y003886D01*
X009036Y003884D02*
X009501Y003884D01*
X009502Y003886D02*
X009502Y004313D01*
X009502Y004310D02*
X009035Y004310D01*
X009035Y004308D02*
X009502Y004308D01*
X009502Y004305D02*
X009035Y004305D01*
X009035Y004303D02*
X009502Y004303D01*
X009502Y004301D02*
X009035Y004301D01*
X009035Y004298D02*
X009502Y004298D01*
X009502Y004296D02*
X009035Y004296D01*
X009035Y004293D02*
X009502Y004293D01*
X009502Y004291D02*
X009035Y004291D01*
X009035Y004288D02*
X009502Y004288D01*
X009502Y004286D02*
X009035Y004286D01*
X009035Y004283D02*
X009502Y004283D01*
X009502Y004281D02*
X009035Y004281D01*
X009035Y004279D02*
X009502Y004279D01*
X009502Y004276D02*
X009035Y004276D01*
X009035Y004274D02*
X009502Y004274D01*
X009502Y004271D02*
X009035Y004271D01*
X009035Y004269D02*
X009502Y004269D01*
X009502Y004266D02*
X009035Y004266D01*
X009035Y004264D02*
X009502Y004264D01*
X009502Y004262D02*
X009035Y004262D01*
X009035Y004259D02*
X009502Y004259D01*
X009502Y004257D02*
X009035Y004257D01*
X009035Y004254D02*
X009502Y004254D01*
X009502Y004252D02*
X009035Y004252D01*
X009035Y004249D02*
X009502Y004249D01*
X009502Y004247D02*
X009035Y004247D01*
X009035Y004244D02*
X009502Y004244D01*
X009502Y004242D02*
X009035Y004242D01*
X009035Y004240D02*
X009502Y004240D01*
X009502Y004237D02*
X009035Y004237D01*
X009035Y004235D02*
X009502Y004235D01*
X009502Y004232D02*
X009035Y004232D01*
X009035Y004230D02*
X009502Y004230D01*
X009502Y004227D02*
X009035Y004227D01*
X009035Y004225D02*
X009502Y004225D01*
X009502Y004223D02*
X009035Y004223D01*
X009035Y004220D02*
X009502Y004220D01*
X009502Y004218D02*
X009035Y004218D01*
X009035Y004215D02*
X009502Y004215D01*
X009502Y004213D02*
X009035Y004213D01*
X009035Y004210D02*
X009502Y004210D01*
X009502Y004208D02*
X009035Y004208D01*
X009035Y004205D02*
X009502Y004205D01*
X009502Y004203D02*
X009035Y004203D01*
X009035Y004201D02*
X009502Y004201D01*
X009502Y004198D02*
X009035Y004198D01*
X009035Y004196D02*
X009502Y004196D01*
X009502Y004193D02*
X009035Y004193D01*
X009035Y004191D02*
X009502Y004191D01*
X009502Y004188D02*
X009035Y004188D01*
X009035Y004186D02*
X009502Y004186D01*
X009502Y004184D02*
X009035Y004184D01*
X009035Y004181D02*
X009502Y004181D01*
X009502Y004179D02*
X009035Y004179D01*
X009035Y004176D02*
X009502Y004176D01*
X009502Y004174D02*
X009035Y004174D01*
X009035Y004171D02*
X009502Y004171D01*
X009502Y004169D02*
X009035Y004169D01*
X009035Y004166D02*
X009502Y004166D01*
X009502Y004164D02*
X009035Y004164D01*
X009035Y004162D02*
X009502Y004162D01*
X009502Y004159D02*
X009035Y004159D01*
X009035Y004157D02*
X009502Y004157D01*
X009502Y004154D02*
X009035Y004154D01*
X009035Y004152D02*
X009502Y004152D01*
X009502Y004149D02*
X009035Y004149D01*
X009035Y004147D02*
X009502Y004147D01*
X009502Y004145D02*
X009035Y004145D01*
X009035Y004142D02*
X009502Y004142D01*
X009502Y004140D02*
X009035Y004140D01*
X009035Y004137D02*
X009502Y004137D01*
X009502Y004135D02*
X009035Y004135D01*
X009035Y004132D02*
X009502Y004132D01*
X009502Y004130D02*
X009035Y004130D01*
X009035Y004127D02*
X009502Y004127D01*
X009502Y004125D02*
X009035Y004125D01*
X009035Y004123D02*
X009502Y004123D01*
X009502Y004120D02*
X009035Y004120D01*
X009035Y004118D02*
X009502Y004118D01*
X009502Y004115D02*
X009035Y004115D01*
X009035Y004113D02*
X009502Y004113D01*
X009502Y004110D02*
X009035Y004110D01*
X009035Y004108D02*
X009502Y004108D01*
X009502Y004106D02*
X009035Y004106D01*
X009035Y004103D02*
X009502Y004103D01*
X009502Y004101D02*
X009035Y004101D01*
X009035Y004098D02*
X009502Y004098D01*
X009502Y004096D02*
X009035Y004096D01*
X009035Y004093D02*
X009502Y004093D01*
X009502Y004091D02*
X009035Y004091D01*
X009035Y004088D02*
X009502Y004088D01*
X009502Y004086D02*
X009035Y004086D01*
X009035Y004084D02*
X009502Y004084D01*
X009502Y004081D02*
X009035Y004081D01*
X009035Y004079D02*
X009502Y004079D01*
X009502Y004076D02*
X009035Y004076D01*
X009035Y004074D02*
X009502Y004074D01*
X009502Y004071D02*
X009035Y004071D01*
X009035Y004069D02*
X009502Y004069D01*
X009502Y004067D02*
X009035Y004067D01*
X009035Y004064D02*
X009502Y004064D01*
X009502Y004062D02*
X009035Y004062D01*
X009035Y004059D02*
X009502Y004059D01*
X009502Y004057D02*
X009035Y004057D01*
X009035Y004054D02*
X009502Y004054D01*
X009502Y004052D02*
X009035Y004052D01*
X009035Y004049D02*
X009502Y004049D01*
X009502Y004047D02*
X009035Y004047D01*
X009035Y004045D02*
X009502Y004045D01*
X009502Y004042D02*
X009035Y004042D01*
X009035Y004040D02*
X009502Y004040D01*
X009502Y004037D02*
X009035Y004037D01*
X009035Y004035D02*
X009502Y004035D01*
X009502Y004032D02*
X009035Y004032D01*
X009035Y004030D02*
X009502Y004030D01*
X009502Y004028D02*
X009035Y004028D01*
X009035Y004025D02*
X009502Y004025D01*
X009502Y004023D02*
X009035Y004023D01*
X009035Y004020D02*
X009502Y004020D01*
X009502Y004018D02*
X009035Y004018D01*
X009035Y004015D02*
X009502Y004015D01*
X009502Y004013D02*
X009035Y004013D01*
X009035Y004010D02*
X009502Y004010D01*
X009502Y004008D02*
X009035Y004008D01*
X009035Y004006D02*
X009502Y004006D01*
X009502Y004003D02*
X009035Y004003D01*
X009035Y004001D02*
X009502Y004001D01*
X009502Y003998D02*
X009035Y003998D01*
X009035Y003996D02*
X009502Y003996D01*
X009502Y003993D02*
X009035Y003993D01*
X009035Y003991D02*
X009502Y003991D01*
X009502Y003989D02*
X009035Y003989D01*
X009035Y003986D02*
X009502Y003986D01*
X009502Y003984D02*
X009035Y003984D01*
X009035Y003981D02*
X009502Y003981D01*
X009502Y003979D02*
X009035Y003979D01*
X009035Y003976D02*
X009502Y003976D01*
X009502Y003974D02*
X009035Y003974D01*
X009035Y003972D02*
X009502Y003972D01*
X009502Y003969D02*
X009035Y003969D01*
X009035Y003967D02*
X009502Y003967D01*
X009502Y003964D02*
X009035Y003964D01*
X009035Y003962D02*
X009502Y003962D01*
X009502Y003959D02*
X009035Y003959D01*
X009035Y003957D02*
X009502Y003957D01*
X009502Y003954D02*
X009035Y003954D01*
X009035Y003952D02*
X009502Y003952D01*
X009502Y003950D02*
X009035Y003950D01*
X009035Y003947D02*
X009502Y003947D01*
X009502Y003945D02*
X009035Y003945D01*
X009035Y003942D02*
X009502Y003942D01*
X009502Y003940D02*
X009035Y003940D01*
X009035Y003937D02*
X009502Y003937D01*
X009502Y003935D02*
X009035Y003935D01*
X009035Y003933D02*
X009502Y003933D01*
X009502Y003930D02*
X009035Y003930D01*
X009035Y003928D02*
X009502Y003928D01*
X009502Y003925D02*
X009035Y003925D01*
X009035Y003923D02*
X009502Y003923D01*
X009502Y003920D02*
X009035Y003920D01*
X009035Y003918D02*
X009502Y003918D01*
X009502Y003915D02*
X009035Y003915D01*
X009035Y003913D02*
X009502Y003913D01*
X009502Y003911D02*
X009035Y003911D01*
X009035Y003908D02*
X009502Y003908D01*
X009502Y003906D02*
X009035Y003906D01*
X009035Y003903D02*
X009502Y003903D01*
X009502Y003901D02*
X009035Y003901D01*
X009035Y003898D02*
X009502Y003898D01*
X009502Y003896D02*
X009035Y003896D01*
X009035Y003894D02*
X009502Y003894D01*
X009502Y003891D02*
X009035Y003891D01*
X009035Y003889D02*
X009502Y003889D01*
X009501Y003881D02*
X009036Y003881D01*
X009036Y003879D02*
X009501Y003879D01*
X009501Y003876D02*
X009037Y003876D01*
X009037Y003874D02*
X009500Y003874D01*
X009500Y003872D02*
X009037Y003872D01*
X009037Y003869D02*
X009500Y003869D01*
X009500Y003867D02*
X009038Y003867D01*
X009038Y003864D02*
X009500Y003864D01*
X009499Y003862D02*
X009038Y003862D01*
X009039Y003859D02*
X009499Y003859D01*
X009499Y003857D02*
X009039Y003857D01*
X009039Y003855D02*
X009499Y003855D01*
X009499Y003852D02*
X009039Y003852D01*
X009040Y003850D02*
X009498Y003850D01*
X009498Y003847D02*
X009040Y003847D01*
X009040Y003845D02*
X009498Y003845D01*
X009498Y003842D02*
X009041Y003842D01*
X009041Y003840D02*
X009497Y003840D01*
X009497Y003837D02*
X009041Y003837D01*
X009041Y003835D02*
X009496Y003835D01*
X009495Y003833D02*
X009042Y003833D01*
X009043Y003830D02*
X009494Y003830D01*
X009494Y003828D02*
X009044Y003828D01*
X009045Y003825D02*
X009493Y003825D01*
X009492Y003823D02*
X009046Y003823D01*
X009046Y003820D02*
X009492Y003820D01*
X009491Y003818D02*
X009047Y003818D01*
X009048Y003816D02*
X009490Y003816D01*
X009489Y003813D02*
X009049Y003813D01*
X009050Y003811D02*
X009489Y003811D01*
X009488Y003808D02*
X009051Y003808D01*
X009052Y003806D02*
X009487Y003806D01*
X009486Y003803D02*
X009052Y003803D01*
X009053Y003801D02*
X009486Y003801D01*
X009485Y003798D02*
X009054Y003798D01*
X009055Y003796D02*
X009484Y003796D01*
X009483Y003794D02*
X009056Y003794D01*
X009057Y003791D02*
X009482Y003791D01*
X009480Y003789D02*
X009058Y003789D01*
X009058Y003786D02*
X009479Y003786D01*
X009478Y003784D02*
X009059Y003784D01*
X009061Y003781D02*
X009476Y003781D01*
X009475Y003779D02*
X009063Y003779D01*
X009064Y003777D02*
X009474Y003777D01*
X009473Y003774D02*
X009066Y003774D01*
X009067Y003772D02*
X009471Y003772D01*
X009470Y003769D02*
X009069Y003769D01*
X009070Y003767D02*
X009469Y003767D01*
X009468Y003764D02*
X009072Y003764D01*
X009073Y003762D02*
X009466Y003762D01*
X009462Y003755D02*
X009078Y003755D01*
X009080Y003752D02*
X009460Y003752D01*
X009458Y003750D02*
X009081Y003750D01*
X009083Y003747D02*
X009456Y003747D01*
X009454Y003745D02*
X009084Y003745D01*
X009090Y003738D02*
X009448Y003738D01*
X009446Y003735D02*
X009092Y003735D01*
X009095Y003733D02*
X009444Y003733D01*
X009442Y003730D02*
X009097Y003730D01*
X009100Y003728D02*
X009440Y003728D01*
X009438Y003725D02*
X009102Y003725D01*
X009104Y003723D02*
X009436Y003723D01*
X009434Y003720D02*
X009107Y003720D01*
X009109Y003718D02*
X009431Y003718D01*
X009428Y003716D02*
X009112Y003716D01*
X009114Y003713D02*
X009425Y003713D01*
X009422Y003711D02*
X009117Y003711D01*
X009119Y003708D02*
X009419Y003708D01*
X009416Y003706D02*
X009122Y003706D01*
X009124Y003703D02*
X009413Y003703D01*
X009411Y003701D02*
X009128Y003701D01*
X009132Y003699D02*
X009408Y003699D01*
X009405Y003696D02*
X009135Y003696D01*
X009139Y003694D02*
X009402Y003694D01*
X009398Y003691D02*
X009143Y003691D01*
X009147Y003689D02*
X009394Y003689D01*
X009389Y003686D02*
X009151Y003686D01*
X009155Y003684D02*
X009385Y003684D01*
X009380Y003681D02*
X009159Y003681D01*
X009163Y003679D02*
X009376Y003679D01*
X009371Y003677D02*
X009167Y003677D01*
X009172Y003674D02*
X009367Y003674D01*
X009362Y003672D02*
X009179Y003672D01*
X009186Y003669D02*
X009356Y003669D01*
X009349Y003667D02*
X009193Y003667D01*
X009200Y003664D02*
X009341Y003664D01*
X009333Y003662D02*
X009207Y003662D01*
X009214Y003660D02*
X009325Y003660D01*
X009317Y003657D02*
X009225Y003657D01*
X009248Y003655D02*
X009296Y003655D01*
X009273Y003652D02*
X009270Y003652D01*
X009497Y004361D02*
X009041Y004361D01*
X009041Y004364D02*
X009496Y004364D01*
X009496Y004366D02*
X009042Y004366D01*
X009042Y004369D02*
X009495Y004369D01*
X009494Y004371D02*
X009043Y004371D01*
X009044Y004374D02*
X009494Y004374D01*
X009493Y004376D02*
X009045Y004376D01*
X009046Y004379D02*
X009492Y004379D01*
X009491Y004381D02*
X009047Y004381D01*
X009047Y004383D02*
X009491Y004383D01*
X009490Y004386D02*
X009048Y004386D01*
X009049Y004388D02*
X009489Y004388D01*
X009489Y004391D02*
X009050Y004391D01*
X009051Y004393D02*
X009488Y004393D01*
X009487Y004396D02*
X009052Y004396D01*
X009052Y004398D02*
X009487Y004398D01*
X009486Y004400D02*
X009053Y004400D01*
X009054Y004403D02*
X009485Y004403D01*
X009484Y004405D02*
X009055Y004405D01*
X009056Y004408D02*
X009483Y004408D01*
X009481Y004410D02*
X009057Y004410D01*
X009057Y004413D02*
X009480Y004413D01*
X009479Y004415D02*
X009058Y004415D01*
X009060Y004418D02*
X009478Y004418D01*
X009476Y004420D02*
X009061Y004420D01*
X009063Y004422D02*
X009475Y004422D01*
X009474Y004425D02*
X009064Y004425D01*
X009066Y004427D02*
X009473Y004427D01*
X009471Y004430D02*
X009067Y004430D01*
X009069Y004432D02*
X009470Y004432D01*
X009469Y004435D02*
X009070Y004435D01*
X009072Y004437D02*
X009468Y004437D01*
X009466Y004439D02*
X009073Y004439D01*
X009075Y004442D02*
X009465Y004442D01*
X009464Y004444D02*
X009076Y004444D01*
X009078Y004447D02*
X009462Y004447D01*
X009460Y004449D02*
X009079Y004449D01*
X009081Y004452D02*
X009458Y004452D01*
X009456Y004454D02*
X009082Y004454D01*
X009084Y004457D02*
X009454Y004457D01*
X009448Y004464D02*
X009090Y004464D01*
X009092Y004466D02*
X009446Y004466D01*
X009444Y004469D02*
X009095Y004469D01*
X009097Y004471D02*
X009442Y004471D01*
X009440Y004474D02*
X009099Y004474D01*
X009102Y004476D02*
X009438Y004476D01*
X009437Y004478D02*
X009104Y004478D01*
X009107Y004481D02*
X009434Y004481D01*
X009431Y004483D02*
X009109Y004483D01*
X009111Y004486D02*
X009428Y004486D01*
X009425Y004488D02*
X009114Y004488D01*
X009116Y004491D02*
X009423Y004491D01*
X009420Y004493D02*
X009119Y004493D01*
X009121Y004496D02*
X009417Y004496D01*
X009414Y004498D02*
X009124Y004498D01*
X009127Y004500D02*
X009411Y004500D01*
X009408Y004503D02*
X009131Y004503D01*
X009135Y004505D02*
X009405Y004505D01*
X009402Y004508D02*
X009139Y004508D01*
X009143Y004510D02*
X009399Y004510D01*
X009395Y004513D02*
X009146Y004513D01*
X009150Y004515D02*
X009390Y004515D01*
X009386Y004517D02*
X009154Y004517D01*
X009158Y004520D02*
X009381Y004520D01*
X009377Y004522D02*
X009162Y004522D01*
X009166Y004525D02*
X009373Y004525D01*
X009368Y004527D02*
X009170Y004527D01*
X009177Y004530D02*
X009364Y004530D01*
X009359Y004532D02*
X009184Y004532D01*
X009191Y004535D02*
X009351Y004535D01*
X009343Y004537D02*
X009197Y004537D01*
X009204Y004539D02*
X009336Y004539D01*
X009328Y004542D02*
X009211Y004542D01*
X009218Y004544D02*
X009321Y004544D01*
X009306Y004547D02*
X009237Y004547D01*
X009258Y004549D02*
X009285Y004549D01*
D13*
X009585Y007243D02*
X009585Y007559D01*
X010078Y007559D02*
X010078Y007243D01*
M02*
