G75*
G70*
%OFA0B0*%
%FSLAX24Y24*%
%IPPOS*%
%LPD*%
%AMOC8*
5,1,8,0,0,1.08239X$1,22.5*
%
%ADD10C,0.0050*%
%ADD11C,0.0004*%
D10*
X008731Y001839D02*
X010931Y001839D01*
X010931Y009308D01*
X008731Y009308D01*
X008731Y001839D01*
D11*
X009120Y003679D02*
X009074Y003695D01*
X009034Y003720D01*
X009000Y003754D01*
X008974Y003795D01*
X008958Y003840D01*
X009378Y003840D01*
X009379Y003840D02*
X009362Y003795D01*
X009337Y003754D01*
X009302Y003720D01*
X009261Y003694D01*
X009216Y003679D01*
X009168Y003673D01*
X009120Y003679D01*
X009119Y003679D02*
X009217Y003679D01*
X009224Y003681D02*
X009112Y003681D01*
X009105Y003684D02*
X009231Y003684D01*
X009238Y003686D02*
X009098Y003686D01*
X009091Y003689D02*
X009245Y003689D01*
X009252Y003691D02*
X009084Y003691D01*
X009077Y003694D02*
X009259Y003694D01*
X009264Y003696D02*
X009072Y003696D01*
X009068Y003699D02*
X009268Y003699D01*
X009272Y003701D02*
X009065Y003701D01*
X009061Y003703D02*
X009276Y003703D01*
X009280Y003706D02*
X009057Y003706D01*
X009053Y003708D02*
X009284Y003708D01*
X009287Y003711D02*
X009049Y003711D01*
X009045Y003713D02*
X009291Y003713D01*
X009295Y003716D02*
X009041Y003716D01*
X009037Y003718D02*
X009299Y003718D01*
X009303Y003720D02*
X009034Y003720D01*
X009031Y003723D02*
X009305Y003723D01*
X009308Y003725D02*
X009029Y003725D01*
X009026Y003728D02*
X009310Y003728D01*
X009313Y003730D02*
X009024Y003730D01*
X009021Y003733D02*
X009315Y003733D01*
X009318Y003735D02*
X009019Y003735D01*
X009017Y003738D02*
X009320Y003738D01*
X009322Y003740D02*
X009014Y003740D01*
X009012Y003742D02*
X009325Y003742D01*
X009327Y003745D02*
X009009Y003745D01*
X009007Y003747D02*
X009330Y003747D01*
X009332Y003750D02*
X009004Y003750D01*
X009002Y003752D02*
X009335Y003752D01*
X009337Y003755D02*
X009000Y003755D01*
X008998Y003757D02*
X009339Y003757D01*
X009340Y003759D02*
X008997Y003759D01*
X008995Y003762D02*
X009342Y003762D01*
X009343Y003764D02*
X008993Y003764D01*
X008992Y003767D02*
X009345Y003767D01*
X009346Y003769D02*
X008990Y003769D01*
X008989Y003772D02*
X009348Y003772D01*
X009349Y003774D02*
X008987Y003774D01*
X008986Y003777D02*
X009351Y003777D01*
X009352Y003779D02*
X008984Y003779D01*
X008983Y003781D02*
X009354Y003781D01*
X009356Y003784D02*
X008981Y003784D01*
X008980Y003786D02*
X009357Y003786D01*
X009359Y003789D02*
X008978Y003789D01*
X008977Y003791D02*
X009360Y003791D01*
X009362Y003794D02*
X008975Y003794D01*
X008974Y003796D02*
X009363Y003796D01*
X009364Y003798D02*
X008973Y003798D01*
X008972Y003801D02*
X009365Y003801D01*
X009365Y003803D02*
X008971Y003803D01*
X008970Y003806D02*
X009366Y003806D01*
X009367Y003808D02*
X008970Y003808D01*
X008969Y003811D02*
X009368Y003811D01*
X009369Y003813D02*
X008968Y003813D01*
X008967Y003816D02*
X009370Y003816D01*
X009371Y003818D02*
X008966Y003818D01*
X008965Y003820D02*
X009372Y003820D01*
X009372Y003823D02*
X008964Y003823D01*
X008964Y003825D02*
X009373Y003825D01*
X009374Y003828D02*
X008963Y003828D01*
X008962Y003830D02*
X009375Y003830D01*
X009376Y003833D02*
X008961Y003833D01*
X008960Y003835D02*
X009377Y003835D01*
X009378Y003837D02*
X008959Y003837D01*
X008958Y003840D02*
X008953Y003888D01*
X008953Y004314D01*
X008958Y004362D01*
X008974Y004408D01*
X009362Y004408D01*
X009360Y004410D02*
X008976Y004410D01*
X008977Y004413D02*
X009359Y004413D01*
X009358Y004415D02*
X008979Y004415D01*
X008980Y004418D02*
X009356Y004418D01*
X009355Y004420D02*
X008982Y004420D01*
X008983Y004422D02*
X009354Y004422D01*
X009352Y004425D02*
X008985Y004425D01*
X008986Y004427D02*
X009351Y004427D01*
X009350Y004430D02*
X008988Y004430D01*
X008989Y004432D02*
X009348Y004432D01*
X009347Y004434D02*
X009367Y004397D01*
X009380Y004357D01*
X008958Y004357D01*
X008958Y004359D02*
X009379Y004359D01*
X009378Y004361D02*
X008958Y004361D01*
X008959Y004364D02*
X009378Y004364D01*
X009377Y004366D02*
X008960Y004366D01*
X008961Y004369D02*
X009376Y004369D01*
X009375Y004371D02*
X008961Y004371D01*
X008962Y004374D02*
X009375Y004374D01*
X009374Y004376D02*
X008963Y004376D01*
X008964Y004379D02*
X009373Y004379D01*
X009372Y004381D02*
X008965Y004381D01*
X008966Y004383D02*
X009372Y004383D01*
X009371Y004386D02*
X008966Y004386D01*
X008967Y004388D02*
X009370Y004388D01*
X009369Y004391D02*
X008968Y004391D01*
X008969Y004393D02*
X009369Y004393D01*
X009368Y004396D02*
X008970Y004396D01*
X008971Y004398D02*
X009367Y004398D01*
X009366Y004400D02*
X008972Y004400D01*
X008972Y004403D02*
X009364Y004403D01*
X009363Y004405D02*
X008973Y004405D01*
X008974Y004408D02*
X009000Y004448D01*
X009034Y004482D01*
X009074Y004508D01*
X009261Y004508D01*
X009265Y004505D02*
X009070Y004505D01*
X009066Y004503D02*
X009270Y004503D01*
X009275Y004500D02*
X009062Y004500D01*
X009058Y004498D02*
X009279Y004498D01*
X009284Y004496D02*
X009055Y004496D01*
X009051Y004493D02*
X009288Y004493D01*
X009320Y004467D01*
X009347Y004434D01*
X009347Y004435D02*
X008991Y004435D01*
X008993Y004437D02*
X009345Y004437D01*
X009343Y004439D02*
X008994Y004439D01*
X008996Y004442D02*
X009341Y004442D01*
X009339Y004444D02*
X008997Y004444D01*
X008999Y004447D02*
X009337Y004447D01*
X009335Y004449D02*
X009000Y004449D01*
X009003Y004452D02*
X009333Y004452D01*
X009331Y004454D02*
X009005Y004454D01*
X009008Y004457D02*
X009329Y004457D01*
X009327Y004459D02*
X009010Y004459D01*
X009013Y004461D02*
X009325Y004461D01*
X009323Y004464D02*
X009015Y004464D01*
X009018Y004466D02*
X009321Y004466D01*
X009318Y004469D02*
X009020Y004469D01*
X009022Y004471D02*
X009315Y004471D01*
X009312Y004474D02*
X009025Y004474D01*
X009027Y004476D02*
X009309Y004476D01*
X009306Y004478D02*
X009030Y004478D01*
X009032Y004481D02*
X009303Y004481D01*
X009300Y004483D02*
X009035Y004483D01*
X009039Y004486D02*
X009297Y004486D01*
X009294Y004488D02*
X009043Y004488D01*
X009047Y004491D02*
X009291Y004491D01*
X009288Y004493D02*
X009250Y004513D01*
X009210Y004525D01*
X009168Y004529D01*
X009120Y004524D01*
X009074Y004508D01*
X009080Y004510D02*
X009256Y004510D01*
X009252Y004513D02*
X009087Y004513D01*
X009094Y004515D02*
X009244Y004515D01*
X009236Y004517D02*
X009101Y004517D01*
X009108Y004520D02*
X009228Y004520D01*
X009220Y004522D02*
X009115Y004522D01*
X009127Y004525D02*
X009212Y004525D01*
X009190Y004527D02*
X009149Y004527D01*
X008957Y004354D02*
X009380Y004354D01*
X009380Y004352D02*
X008957Y004352D01*
X008957Y004349D02*
X009381Y004349D01*
X009381Y004347D02*
X008957Y004347D01*
X008956Y004344D02*
X009381Y004344D01*
X009381Y004342D02*
X008956Y004342D01*
X008956Y004340D02*
X009382Y004340D01*
X009382Y004337D02*
X008955Y004337D01*
X008955Y004335D02*
X009382Y004335D01*
X009382Y004332D02*
X008955Y004332D01*
X008955Y004330D02*
X009383Y004330D01*
X009383Y004327D02*
X008954Y004327D01*
X008954Y004325D02*
X009383Y004325D01*
X009383Y004322D02*
X008954Y004322D01*
X008953Y004320D02*
X009384Y004320D01*
X009384Y004318D02*
X008953Y004318D01*
X008953Y004315D02*
X009384Y004315D01*
X009384Y004314D02*
X009380Y004357D01*
X009384Y004314D02*
X009384Y003888D01*
X009379Y003840D01*
X009379Y003842D02*
X008958Y003842D01*
X008958Y003845D02*
X009379Y003845D01*
X009379Y003847D02*
X008957Y003847D01*
X008957Y003850D02*
X009380Y003850D01*
X009380Y003852D02*
X008957Y003852D01*
X008957Y003855D02*
X009380Y003855D01*
X009380Y003857D02*
X008956Y003857D01*
X008956Y003859D02*
X009381Y003859D01*
X009381Y003862D02*
X008956Y003862D01*
X008956Y003864D02*
X009381Y003864D01*
X009382Y003867D02*
X008955Y003867D01*
X008955Y003869D02*
X009382Y003869D01*
X009382Y003872D02*
X008955Y003872D01*
X008954Y003874D02*
X009382Y003874D01*
X009383Y003876D02*
X008954Y003876D01*
X008954Y003879D02*
X009383Y003879D01*
X009383Y003881D02*
X008954Y003881D01*
X008953Y003884D02*
X009384Y003884D01*
X009384Y003886D02*
X008953Y003886D01*
X008953Y003889D02*
X009384Y003889D01*
X009384Y003891D02*
X008953Y003891D01*
X008953Y003894D02*
X009384Y003894D01*
X009384Y003896D02*
X008953Y003896D01*
X008953Y003898D02*
X009384Y003898D01*
X009384Y003901D02*
X008953Y003901D01*
X008953Y003903D02*
X009384Y003903D01*
X009384Y003906D02*
X008953Y003906D01*
X008953Y003908D02*
X009384Y003908D01*
X009384Y003911D02*
X008953Y003911D01*
X008953Y003913D02*
X009384Y003913D01*
X009384Y003915D02*
X008953Y003915D01*
X008953Y003918D02*
X009384Y003918D01*
X009384Y003920D02*
X008953Y003920D01*
X008953Y003923D02*
X009384Y003923D01*
X009384Y003925D02*
X008953Y003925D01*
X008953Y003928D02*
X009384Y003928D01*
X009384Y003930D02*
X008953Y003930D01*
X008953Y003933D02*
X009384Y003933D01*
X009384Y003935D02*
X008953Y003935D01*
X008953Y003937D02*
X009384Y003937D01*
X009384Y003940D02*
X008953Y003940D01*
X008953Y003942D02*
X009384Y003942D01*
X009384Y003945D02*
X008953Y003945D01*
X008953Y003947D02*
X009384Y003947D01*
X009384Y003950D02*
X008953Y003950D01*
X008953Y003952D02*
X009384Y003952D01*
X009384Y003954D02*
X008953Y003954D01*
X008953Y003957D02*
X009384Y003957D01*
X009384Y003959D02*
X008953Y003959D01*
X008953Y003962D02*
X009384Y003962D01*
X009384Y003964D02*
X008953Y003964D01*
X008953Y003967D02*
X009384Y003967D01*
X009384Y003969D02*
X008953Y003969D01*
X008953Y003972D02*
X009384Y003972D01*
X009384Y003974D02*
X008953Y003974D01*
X008953Y003976D02*
X009384Y003976D01*
X009384Y003979D02*
X008953Y003979D01*
X008953Y003981D02*
X009384Y003981D01*
X009384Y003984D02*
X008953Y003984D01*
X008953Y003986D02*
X009384Y003986D01*
X009384Y003989D02*
X008953Y003989D01*
X008953Y003991D02*
X009384Y003991D01*
X009384Y003993D02*
X008953Y003993D01*
X008953Y003996D02*
X009384Y003996D01*
X009384Y003998D02*
X008953Y003998D01*
X008953Y004001D02*
X009384Y004001D01*
X009384Y004003D02*
X008953Y004003D01*
X008953Y004006D02*
X009384Y004006D01*
X009384Y004008D02*
X008953Y004008D01*
X008953Y004010D02*
X009384Y004010D01*
X009384Y004013D02*
X008953Y004013D01*
X008953Y004015D02*
X009384Y004015D01*
X009384Y004018D02*
X008953Y004018D01*
X008953Y004020D02*
X009384Y004020D01*
X009384Y004023D02*
X008953Y004023D01*
X008953Y004025D02*
X009384Y004025D01*
X009384Y004028D02*
X008953Y004028D01*
X008953Y004030D02*
X009384Y004030D01*
X009384Y004032D02*
X008953Y004032D01*
X008953Y004035D02*
X009384Y004035D01*
X009384Y004037D02*
X008953Y004037D01*
X008953Y004040D02*
X009384Y004040D01*
X009384Y004042D02*
X008953Y004042D01*
X008953Y004045D02*
X009384Y004045D01*
X009384Y004047D02*
X008953Y004047D01*
X008953Y004049D02*
X009384Y004049D01*
X009384Y004052D02*
X008953Y004052D01*
X008953Y004054D02*
X009384Y004054D01*
X009384Y004057D02*
X008953Y004057D01*
X008953Y004059D02*
X009384Y004059D01*
X009384Y004062D02*
X008953Y004062D01*
X008953Y004064D02*
X009384Y004064D01*
X009384Y004067D02*
X008953Y004067D01*
X008953Y004069D02*
X009384Y004069D01*
X009384Y004071D02*
X008953Y004071D01*
X008953Y004074D02*
X009384Y004074D01*
X009384Y004076D02*
X008953Y004076D01*
X008953Y004079D02*
X009384Y004079D01*
X009384Y004081D02*
X008953Y004081D01*
X008953Y004084D02*
X009384Y004084D01*
X009384Y004086D02*
X008953Y004086D01*
X008953Y004088D02*
X009384Y004088D01*
X009384Y004091D02*
X008953Y004091D01*
X008953Y004093D02*
X009384Y004093D01*
X009384Y004096D02*
X008953Y004096D01*
X008953Y004098D02*
X009384Y004098D01*
X009384Y004101D02*
X008953Y004101D01*
X008953Y004103D02*
X009384Y004103D01*
X009384Y004106D02*
X008953Y004106D01*
X008953Y004108D02*
X009384Y004108D01*
X009384Y004110D02*
X008953Y004110D01*
X008953Y004113D02*
X009384Y004113D01*
X009384Y004115D02*
X008953Y004115D01*
X008953Y004118D02*
X009384Y004118D01*
X009384Y004120D02*
X008953Y004120D01*
X008953Y004123D02*
X009384Y004123D01*
X009384Y004125D02*
X008953Y004125D01*
X008953Y004127D02*
X009384Y004127D01*
X009384Y004130D02*
X008953Y004130D01*
X008953Y004132D02*
X009384Y004132D01*
X009384Y004135D02*
X008953Y004135D01*
X008953Y004137D02*
X009384Y004137D01*
X009384Y004140D02*
X008953Y004140D01*
X008953Y004142D02*
X009384Y004142D01*
X009384Y004145D02*
X008953Y004145D01*
X008953Y004147D02*
X009384Y004147D01*
X009384Y004149D02*
X008953Y004149D01*
X008953Y004152D02*
X009384Y004152D01*
X009384Y004154D02*
X008953Y004154D01*
X008953Y004157D02*
X009384Y004157D01*
X009384Y004159D02*
X008953Y004159D01*
X008953Y004162D02*
X009384Y004162D01*
X009384Y004164D02*
X008953Y004164D01*
X008953Y004166D02*
X009384Y004166D01*
X009384Y004169D02*
X008953Y004169D01*
X008953Y004171D02*
X009384Y004171D01*
X009384Y004174D02*
X008953Y004174D01*
X008953Y004176D02*
X009384Y004176D01*
X009384Y004179D02*
X008953Y004179D01*
X008953Y004181D02*
X009384Y004181D01*
X009384Y004184D02*
X008953Y004184D01*
X008953Y004186D02*
X009384Y004186D01*
X009384Y004188D02*
X008953Y004188D01*
X008953Y004191D02*
X009384Y004191D01*
X009384Y004193D02*
X008953Y004193D01*
X008953Y004196D02*
X009384Y004196D01*
X009384Y004198D02*
X008953Y004198D01*
X008953Y004201D02*
X009384Y004201D01*
X009384Y004203D02*
X008953Y004203D01*
X008953Y004205D02*
X009384Y004205D01*
X009384Y004208D02*
X008953Y004208D01*
X008953Y004210D02*
X009384Y004210D01*
X009384Y004213D02*
X008953Y004213D01*
X008953Y004215D02*
X009384Y004215D01*
X009384Y004218D02*
X008953Y004218D01*
X008953Y004220D02*
X009384Y004220D01*
X009384Y004223D02*
X008953Y004223D01*
X008953Y004225D02*
X009384Y004225D01*
X009384Y004227D02*
X008953Y004227D01*
X008953Y004230D02*
X009384Y004230D01*
X009384Y004232D02*
X008953Y004232D01*
X008953Y004235D02*
X009384Y004235D01*
X009384Y004237D02*
X008953Y004237D01*
X008953Y004240D02*
X009384Y004240D01*
X009384Y004242D02*
X008953Y004242D01*
X008953Y004244D02*
X009384Y004244D01*
X009384Y004247D02*
X008953Y004247D01*
X008953Y004249D02*
X009384Y004249D01*
X009384Y004252D02*
X008953Y004252D01*
X008953Y004254D02*
X009384Y004254D01*
X009384Y004257D02*
X008953Y004257D01*
X008953Y004259D02*
X009384Y004259D01*
X009384Y004262D02*
X008953Y004262D01*
X008953Y004264D02*
X009384Y004264D01*
X009384Y004266D02*
X008953Y004266D01*
X008953Y004269D02*
X009384Y004269D01*
X009384Y004271D02*
X008953Y004271D01*
X008953Y004274D02*
X009384Y004274D01*
X009384Y004276D02*
X008953Y004276D01*
X008953Y004279D02*
X009384Y004279D01*
X009384Y004281D02*
X008953Y004281D01*
X008953Y004283D02*
X009384Y004283D01*
X009384Y004286D02*
X008953Y004286D01*
X008953Y004288D02*
X009384Y004288D01*
X009384Y004291D02*
X008953Y004291D01*
X008953Y004293D02*
X009384Y004293D01*
X009384Y004296D02*
X008953Y004296D01*
X008953Y004298D02*
X009384Y004298D01*
X009384Y004301D02*
X008953Y004301D01*
X008953Y004303D02*
X009384Y004303D01*
X009384Y004305D02*
X008953Y004305D01*
X008953Y004308D02*
X009384Y004308D01*
X009384Y004310D02*
X008953Y004310D01*
X008953Y004313D02*
X009384Y004313D01*
X009197Y003677D02*
X009140Y003677D01*
X009161Y003674D02*
X009175Y003674D01*
X010084Y003840D02*
X010079Y003888D01*
X010079Y004314D01*
X010084Y004362D01*
X010100Y004408D01*
X010488Y004408D01*
X010486Y004410D02*
X010102Y004410D01*
X010103Y004413D02*
X010485Y004413D01*
X010484Y004415D02*
X010105Y004415D01*
X010106Y004418D02*
X010482Y004418D01*
X010481Y004420D02*
X010108Y004420D01*
X010109Y004422D02*
X010480Y004422D01*
X010478Y004425D02*
X010111Y004425D01*
X010112Y004427D02*
X010477Y004427D01*
X010476Y004430D02*
X010114Y004430D01*
X010115Y004432D02*
X010474Y004432D01*
X010473Y004434D02*
X010493Y004397D01*
X010506Y004357D01*
X010084Y004357D01*
X010084Y004359D02*
X010505Y004359D01*
X010504Y004361D02*
X010084Y004361D01*
X010085Y004364D02*
X010504Y004364D01*
X010503Y004366D02*
X010086Y004366D01*
X010087Y004369D02*
X010502Y004369D01*
X010501Y004371D02*
X010087Y004371D01*
X010088Y004374D02*
X010501Y004374D01*
X010500Y004376D02*
X010089Y004376D01*
X010090Y004379D02*
X010499Y004379D01*
X010498Y004381D02*
X010091Y004381D01*
X010092Y004383D02*
X010498Y004383D01*
X010497Y004386D02*
X010092Y004386D01*
X010093Y004388D02*
X010496Y004388D01*
X010495Y004391D02*
X010094Y004391D01*
X010095Y004393D02*
X010495Y004393D01*
X010494Y004396D02*
X010096Y004396D01*
X010097Y004398D02*
X010493Y004398D01*
X010492Y004400D02*
X010098Y004400D01*
X010098Y004403D02*
X010490Y004403D01*
X010489Y004405D02*
X010099Y004405D01*
X010100Y004408D02*
X010126Y004448D01*
X010160Y004482D01*
X010200Y004508D01*
X010387Y004508D01*
X010391Y004505D02*
X010196Y004505D01*
X010192Y004503D02*
X010396Y004503D01*
X010401Y004500D02*
X010188Y004500D01*
X010184Y004498D02*
X010405Y004498D01*
X010410Y004496D02*
X010181Y004496D01*
X010177Y004493D02*
X010414Y004493D01*
X010446Y004467D01*
X010473Y004434D01*
X010473Y004435D02*
X010117Y004435D01*
X010119Y004437D02*
X010471Y004437D01*
X010469Y004439D02*
X010120Y004439D01*
X010122Y004442D02*
X010467Y004442D01*
X010465Y004444D02*
X010123Y004444D01*
X010125Y004447D02*
X010463Y004447D01*
X010461Y004449D02*
X010126Y004449D01*
X010129Y004452D02*
X010459Y004452D01*
X010457Y004454D02*
X010131Y004454D01*
X010134Y004457D02*
X010455Y004457D01*
X010453Y004459D02*
X010136Y004459D01*
X010139Y004461D02*
X010451Y004461D01*
X010449Y004464D02*
X010141Y004464D01*
X010144Y004466D02*
X010447Y004466D01*
X010444Y004469D02*
X010146Y004469D01*
X010148Y004471D02*
X010441Y004471D01*
X010438Y004474D02*
X010151Y004474D01*
X010153Y004476D02*
X010435Y004476D01*
X010432Y004478D02*
X010156Y004478D01*
X010158Y004481D02*
X010429Y004481D01*
X010426Y004483D02*
X010161Y004483D01*
X010165Y004486D02*
X010423Y004486D01*
X010420Y004488D02*
X010169Y004488D01*
X010173Y004491D02*
X010417Y004491D01*
X010414Y004493D02*
X010376Y004513D01*
X010336Y004525D01*
X010294Y004529D01*
X010246Y004524D01*
X010200Y004508D01*
X010206Y004510D02*
X010382Y004510D01*
X010378Y004513D02*
X010213Y004513D01*
X010220Y004515D02*
X010370Y004515D01*
X010362Y004517D02*
X010227Y004517D01*
X010234Y004520D02*
X010354Y004520D01*
X010346Y004522D02*
X010241Y004522D01*
X010253Y004525D02*
X010338Y004525D01*
X010316Y004527D02*
X010275Y004527D01*
X010083Y004354D02*
X010506Y004354D01*
X010506Y004352D02*
X010083Y004352D01*
X010083Y004349D02*
X010507Y004349D01*
X010507Y004347D02*
X010082Y004347D01*
X010082Y004344D02*
X010507Y004344D01*
X010507Y004342D02*
X010082Y004342D01*
X010082Y004340D02*
X010508Y004340D01*
X010508Y004337D02*
X010081Y004337D01*
X010081Y004335D02*
X010508Y004335D01*
X010508Y004332D02*
X010081Y004332D01*
X010081Y004330D02*
X010509Y004330D01*
X010509Y004327D02*
X010080Y004327D01*
X010080Y004325D02*
X010509Y004325D01*
X010509Y004322D02*
X010080Y004322D01*
X010079Y004320D02*
X010510Y004320D01*
X010510Y004318D02*
X010079Y004318D01*
X010079Y004315D02*
X010510Y004315D01*
X010510Y004314D02*
X010506Y004357D01*
X010510Y004314D02*
X010510Y003888D01*
X010505Y003840D01*
X010488Y003795D01*
X010463Y003754D01*
X010428Y003720D01*
X010387Y003694D01*
X010342Y003679D01*
X010294Y003673D01*
X010246Y003679D01*
X010200Y003695D01*
X010160Y003720D01*
X010126Y003754D01*
X010100Y003795D01*
X010084Y003840D01*
X010504Y003840D01*
X010505Y003842D02*
X010084Y003842D01*
X010084Y003845D02*
X010505Y003845D01*
X010505Y003847D02*
X010083Y003847D01*
X010083Y003850D02*
X010506Y003850D01*
X010506Y003852D02*
X010083Y003852D01*
X010083Y003855D02*
X010506Y003855D01*
X010506Y003857D02*
X010082Y003857D01*
X010082Y003859D02*
X010507Y003859D01*
X010507Y003862D02*
X010082Y003862D01*
X010082Y003864D02*
X010507Y003864D01*
X010508Y003867D02*
X010081Y003867D01*
X010081Y003869D02*
X010508Y003869D01*
X010508Y003872D02*
X010081Y003872D01*
X010080Y003874D02*
X010508Y003874D01*
X010509Y003876D02*
X010080Y003876D01*
X010080Y003879D02*
X010509Y003879D01*
X010509Y003881D02*
X010080Y003881D01*
X010079Y003884D02*
X010510Y003884D01*
X010510Y003886D02*
X010079Y003886D01*
X010079Y003889D02*
X010510Y003889D01*
X010510Y003891D02*
X010079Y003891D01*
X010079Y003894D02*
X010510Y003894D01*
X010510Y003896D02*
X010079Y003896D01*
X010079Y003898D02*
X010510Y003898D01*
X010510Y003901D02*
X010079Y003901D01*
X010079Y003903D02*
X010510Y003903D01*
X010510Y003906D02*
X010079Y003906D01*
X010079Y003908D02*
X010510Y003908D01*
X010510Y003911D02*
X010079Y003911D01*
X010079Y003913D02*
X010510Y003913D01*
X010510Y003915D02*
X010079Y003915D01*
X010079Y003918D02*
X010510Y003918D01*
X010510Y003920D02*
X010079Y003920D01*
X010079Y003923D02*
X010510Y003923D01*
X010510Y003925D02*
X010079Y003925D01*
X010079Y003928D02*
X010510Y003928D01*
X010510Y003930D02*
X010079Y003930D01*
X010079Y003933D02*
X010510Y003933D01*
X010510Y003935D02*
X010079Y003935D01*
X010079Y003937D02*
X010510Y003937D01*
X010510Y003940D02*
X010079Y003940D01*
X010079Y003942D02*
X010510Y003942D01*
X010510Y003945D02*
X010079Y003945D01*
X010079Y003947D02*
X010510Y003947D01*
X010510Y003950D02*
X010079Y003950D01*
X010079Y003952D02*
X010510Y003952D01*
X010510Y003954D02*
X010079Y003954D01*
X010079Y003957D02*
X010510Y003957D01*
X010510Y003959D02*
X010079Y003959D01*
X010079Y003962D02*
X010510Y003962D01*
X010510Y003964D02*
X010079Y003964D01*
X010079Y003967D02*
X010510Y003967D01*
X010510Y003969D02*
X010079Y003969D01*
X010079Y003972D02*
X010510Y003972D01*
X010510Y003974D02*
X010079Y003974D01*
X010079Y003976D02*
X010510Y003976D01*
X010510Y003979D02*
X010079Y003979D01*
X010079Y003981D02*
X010510Y003981D01*
X010510Y003984D02*
X010079Y003984D01*
X010079Y003986D02*
X010510Y003986D01*
X010510Y003989D02*
X010079Y003989D01*
X010079Y003991D02*
X010510Y003991D01*
X010510Y003993D02*
X010079Y003993D01*
X010079Y003996D02*
X010510Y003996D01*
X010510Y003998D02*
X010079Y003998D01*
X010079Y004001D02*
X010510Y004001D01*
X010510Y004003D02*
X010079Y004003D01*
X010079Y004006D02*
X010510Y004006D01*
X010510Y004008D02*
X010079Y004008D01*
X010079Y004010D02*
X010510Y004010D01*
X010510Y004013D02*
X010079Y004013D01*
X010079Y004015D02*
X010510Y004015D01*
X010510Y004018D02*
X010079Y004018D01*
X010079Y004020D02*
X010510Y004020D01*
X010510Y004023D02*
X010079Y004023D01*
X010079Y004025D02*
X010510Y004025D01*
X010510Y004028D02*
X010079Y004028D01*
X010079Y004030D02*
X010510Y004030D01*
X010510Y004032D02*
X010079Y004032D01*
X010079Y004035D02*
X010510Y004035D01*
X010510Y004037D02*
X010079Y004037D01*
X010079Y004040D02*
X010510Y004040D01*
X010510Y004042D02*
X010079Y004042D01*
X010079Y004045D02*
X010510Y004045D01*
X010510Y004047D02*
X010079Y004047D01*
X010079Y004049D02*
X010510Y004049D01*
X010510Y004052D02*
X010079Y004052D01*
X010079Y004054D02*
X010510Y004054D01*
X010510Y004057D02*
X010079Y004057D01*
X010079Y004059D02*
X010510Y004059D01*
X010510Y004062D02*
X010079Y004062D01*
X010079Y004064D02*
X010510Y004064D01*
X010510Y004067D02*
X010079Y004067D01*
X010079Y004069D02*
X010510Y004069D01*
X010510Y004071D02*
X010079Y004071D01*
X010079Y004074D02*
X010510Y004074D01*
X010510Y004076D02*
X010079Y004076D01*
X010079Y004079D02*
X010510Y004079D01*
X010510Y004081D02*
X010079Y004081D01*
X010079Y004084D02*
X010510Y004084D01*
X010510Y004086D02*
X010079Y004086D01*
X010079Y004088D02*
X010510Y004088D01*
X010510Y004091D02*
X010079Y004091D01*
X010079Y004093D02*
X010510Y004093D01*
X010510Y004096D02*
X010079Y004096D01*
X010079Y004098D02*
X010510Y004098D01*
X010510Y004101D02*
X010079Y004101D01*
X010079Y004103D02*
X010510Y004103D01*
X010510Y004106D02*
X010079Y004106D01*
X010079Y004108D02*
X010510Y004108D01*
X010510Y004110D02*
X010079Y004110D01*
X010079Y004113D02*
X010510Y004113D01*
X010510Y004115D02*
X010079Y004115D01*
X010079Y004118D02*
X010510Y004118D01*
X010510Y004120D02*
X010079Y004120D01*
X010079Y004123D02*
X010510Y004123D01*
X010510Y004125D02*
X010079Y004125D01*
X010079Y004127D02*
X010510Y004127D01*
X010510Y004130D02*
X010079Y004130D01*
X010079Y004132D02*
X010510Y004132D01*
X010510Y004135D02*
X010079Y004135D01*
X010079Y004137D02*
X010510Y004137D01*
X010510Y004140D02*
X010079Y004140D01*
X010079Y004142D02*
X010510Y004142D01*
X010510Y004145D02*
X010079Y004145D01*
X010079Y004147D02*
X010510Y004147D01*
X010510Y004149D02*
X010079Y004149D01*
X010079Y004152D02*
X010510Y004152D01*
X010510Y004154D02*
X010079Y004154D01*
X010079Y004157D02*
X010510Y004157D01*
X010510Y004159D02*
X010079Y004159D01*
X010079Y004162D02*
X010510Y004162D01*
X010510Y004164D02*
X010079Y004164D01*
X010079Y004166D02*
X010510Y004166D01*
X010510Y004169D02*
X010079Y004169D01*
X010079Y004171D02*
X010510Y004171D01*
X010510Y004174D02*
X010079Y004174D01*
X010079Y004176D02*
X010510Y004176D01*
X010510Y004179D02*
X010079Y004179D01*
X010079Y004181D02*
X010510Y004181D01*
X010510Y004184D02*
X010079Y004184D01*
X010079Y004186D02*
X010510Y004186D01*
X010510Y004188D02*
X010079Y004188D01*
X010079Y004191D02*
X010510Y004191D01*
X010510Y004193D02*
X010079Y004193D01*
X010079Y004196D02*
X010510Y004196D01*
X010510Y004198D02*
X010079Y004198D01*
X010079Y004201D02*
X010510Y004201D01*
X010510Y004203D02*
X010079Y004203D01*
X010079Y004205D02*
X010510Y004205D01*
X010510Y004208D02*
X010079Y004208D01*
X010079Y004210D02*
X010510Y004210D01*
X010510Y004213D02*
X010079Y004213D01*
X010079Y004215D02*
X010510Y004215D01*
X010510Y004218D02*
X010079Y004218D01*
X010079Y004220D02*
X010510Y004220D01*
X010510Y004223D02*
X010079Y004223D01*
X010079Y004225D02*
X010510Y004225D01*
X010510Y004227D02*
X010079Y004227D01*
X010079Y004230D02*
X010510Y004230D01*
X010510Y004232D02*
X010079Y004232D01*
X010079Y004235D02*
X010510Y004235D01*
X010510Y004237D02*
X010079Y004237D01*
X010079Y004240D02*
X010510Y004240D01*
X010510Y004242D02*
X010079Y004242D01*
X010079Y004244D02*
X010510Y004244D01*
X010510Y004247D02*
X010079Y004247D01*
X010079Y004249D02*
X010510Y004249D01*
X010510Y004252D02*
X010079Y004252D01*
X010079Y004254D02*
X010510Y004254D01*
X010510Y004257D02*
X010079Y004257D01*
X010079Y004259D02*
X010510Y004259D01*
X010510Y004262D02*
X010079Y004262D01*
X010079Y004264D02*
X010510Y004264D01*
X010510Y004266D02*
X010079Y004266D01*
X010079Y004269D02*
X010510Y004269D01*
X010510Y004271D02*
X010079Y004271D01*
X010079Y004274D02*
X010510Y004274D01*
X010510Y004276D02*
X010079Y004276D01*
X010079Y004279D02*
X010510Y004279D01*
X010510Y004281D02*
X010079Y004281D01*
X010079Y004283D02*
X010510Y004283D01*
X010510Y004286D02*
X010079Y004286D01*
X010079Y004288D02*
X010510Y004288D01*
X010510Y004291D02*
X010079Y004291D01*
X010079Y004293D02*
X010510Y004293D01*
X010510Y004296D02*
X010079Y004296D01*
X010079Y004298D02*
X010510Y004298D01*
X010510Y004301D02*
X010079Y004301D01*
X010079Y004303D02*
X010510Y004303D01*
X010510Y004305D02*
X010079Y004305D01*
X010079Y004308D02*
X010510Y004308D01*
X010510Y004310D02*
X010079Y004310D01*
X010079Y004313D02*
X010510Y004313D01*
X010504Y003837D02*
X010085Y003837D01*
X010086Y003835D02*
X010503Y003835D01*
X010502Y003833D02*
X010087Y003833D01*
X010088Y003830D02*
X010501Y003830D01*
X010500Y003828D02*
X010089Y003828D01*
X010090Y003825D02*
X010499Y003825D01*
X010498Y003823D02*
X010090Y003823D01*
X010091Y003820D02*
X010497Y003820D01*
X010497Y003818D02*
X010092Y003818D01*
X010093Y003816D02*
X010496Y003816D01*
X010495Y003813D02*
X010094Y003813D01*
X010095Y003811D02*
X010494Y003811D01*
X010493Y003808D02*
X010096Y003808D01*
X010096Y003806D02*
X010492Y003806D01*
X010491Y003803D02*
X010097Y003803D01*
X010098Y003801D02*
X010491Y003801D01*
X010490Y003798D02*
X010099Y003798D01*
X010100Y003796D02*
X010489Y003796D01*
X010488Y003794D02*
X010101Y003794D01*
X010103Y003791D02*
X010486Y003791D01*
X010485Y003789D02*
X010104Y003789D01*
X010106Y003786D02*
X010483Y003786D01*
X010481Y003784D02*
X010107Y003784D01*
X010109Y003781D02*
X010480Y003781D01*
X010478Y003779D02*
X010110Y003779D01*
X010112Y003777D02*
X010477Y003777D01*
X010475Y003774D02*
X010113Y003774D01*
X010115Y003772D02*
X010474Y003772D01*
X010472Y003769D02*
X010116Y003769D01*
X010118Y003767D02*
X010471Y003767D01*
X010469Y003764D02*
X010119Y003764D01*
X010121Y003762D02*
X010468Y003762D01*
X010466Y003759D02*
X010122Y003759D01*
X010124Y003757D02*
X010465Y003757D01*
X010463Y003755D02*
X010126Y003755D01*
X010128Y003752D02*
X010461Y003752D01*
X010458Y003750D02*
X010130Y003750D01*
X010133Y003747D02*
X010456Y003747D01*
X010453Y003745D02*
X010135Y003745D01*
X010138Y003742D02*
X010451Y003742D01*
X010448Y003740D02*
X010140Y003740D01*
X010143Y003738D02*
X010446Y003738D01*
X010444Y003735D02*
X010145Y003735D01*
X010147Y003733D02*
X010441Y003733D01*
X010439Y003730D02*
X010150Y003730D01*
X010152Y003728D02*
X010436Y003728D01*
X010434Y003725D02*
X010155Y003725D01*
X010157Y003723D02*
X010431Y003723D01*
X010429Y003720D02*
X010160Y003720D01*
X010163Y003718D02*
X010425Y003718D01*
X010421Y003716D02*
X010167Y003716D01*
X010171Y003713D02*
X010417Y003713D01*
X010413Y003711D02*
X010175Y003711D01*
X010179Y003708D02*
X010410Y003708D01*
X010406Y003706D02*
X010183Y003706D01*
X010187Y003703D02*
X010402Y003703D01*
X010398Y003701D02*
X010190Y003701D01*
X010194Y003699D02*
X010394Y003699D01*
X010390Y003696D02*
X010198Y003696D01*
X010203Y003694D02*
X010385Y003694D01*
X010378Y003691D02*
X010210Y003691D01*
X010217Y003689D02*
X010371Y003689D01*
X010364Y003686D02*
X010224Y003686D01*
X010231Y003684D02*
X010357Y003684D01*
X010350Y003681D02*
X010238Y003681D01*
X010245Y003679D02*
X010343Y003679D01*
X010323Y003677D02*
X010265Y003677D01*
X010287Y003674D02*
X010300Y003674D01*
X010294Y005288D02*
X010246Y005293D01*
X010200Y005309D01*
X010160Y005334D01*
X010126Y005368D01*
X010462Y005368D01*
X010463Y005368D02*
X010428Y005334D01*
X010161Y005334D01*
X010158Y005336D02*
X010431Y005336D01*
X010428Y005334D02*
X010387Y005309D01*
X010342Y005293D01*
X010294Y005288D01*
X010293Y005288D01*
X010272Y005290D02*
X010316Y005290D01*
X010339Y005292D02*
X010250Y005292D01*
X010240Y005295D02*
X010348Y005295D01*
X010355Y005297D02*
X010233Y005297D01*
X010226Y005300D02*
X010362Y005300D01*
X010369Y005302D02*
X010219Y005302D01*
X010212Y005305D02*
X010376Y005305D01*
X010383Y005307D02*
X010205Y005307D01*
X010199Y005310D02*
X010389Y005310D01*
X010393Y005312D02*
X010196Y005312D01*
X010192Y005314D02*
X010397Y005314D01*
X010401Y005317D02*
X010188Y005317D01*
X010184Y005319D02*
X010405Y005319D01*
X010408Y005322D02*
X010180Y005322D01*
X010176Y005324D02*
X010412Y005324D01*
X010416Y005327D02*
X010172Y005327D01*
X010168Y005329D02*
X010420Y005329D01*
X010424Y005331D02*
X010164Y005331D01*
X010155Y005339D02*
X010433Y005339D01*
X010435Y005341D02*
X010153Y005341D01*
X010151Y005344D02*
X010438Y005344D01*
X010440Y005346D02*
X010148Y005346D01*
X010146Y005349D02*
X010443Y005349D01*
X010445Y005351D02*
X010143Y005351D01*
X010141Y005353D02*
X010448Y005353D01*
X010450Y005356D02*
X010138Y005356D01*
X010136Y005358D02*
X010453Y005358D01*
X010455Y005361D02*
X010133Y005361D01*
X010131Y005363D02*
X010458Y005363D01*
X010460Y005366D02*
X010129Y005366D01*
X010126Y005368D02*
X010100Y005409D01*
X010084Y005455D01*
X010079Y005502D01*
X010510Y005502D01*
X010505Y005454D01*
X010488Y005409D01*
X010463Y005368D01*
X010464Y005370D02*
X010124Y005370D01*
X010123Y005373D02*
X010466Y005373D01*
X010467Y005375D02*
X010121Y005375D01*
X010120Y005378D02*
X010469Y005378D01*
X010470Y005380D02*
X010118Y005380D01*
X010117Y005383D02*
X010472Y005383D01*
X010473Y005385D02*
X010115Y005385D01*
X010114Y005388D02*
X010475Y005388D01*
X010476Y005390D02*
X010112Y005390D01*
X010111Y005392D02*
X010478Y005392D01*
X010479Y005395D02*
X010109Y005395D01*
X010108Y005397D02*
X010481Y005397D01*
X010483Y005400D02*
X010106Y005400D01*
X010105Y005402D02*
X010484Y005402D01*
X010486Y005405D02*
X010103Y005405D01*
X010101Y005407D02*
X010487Y005407D01*
X010489Y005409D02*
X010100Y005409D01*
X010099Y005412D02*
X010489Y005412D01*
X010490Y005414D02*
X010098Y005414D01*
X010097Y005417D02*
X010491Y005417D01*
X010492Y005419D02*
X010097Y005419D01*
X010096Y005422D02*
X010493Y005422D01*
X010494Y005424D02*
X010095Y005424D01*
X010094Y005427D02*
X010495Y005427D01*
X010496Y005429D02*
X010093Y005429D01*
X010092Y005431D02*
X010496Y005431D01*
X010497Y005434D02*
X010092Y005434D01*
X010091Y005436D02*
X010498Y005436D01*
X010499Y005439D02*
X010090Y005439D01*
X010089Y005441D02*
X010500Y005441D01*
X010501Y005444D02*
X010088Y005444D01*
X010087Y005446D02*
X010502Y005446D01*
X010502Y005448D02*
X010086Y005448D01*
X010086Y005451D02*
X010503Y005451D01*
X010504Y005453D02*
X010085Y005453D01*
X010084Y005456D02*
X010505Y005456D01*
X010505Y005458D02*
X010084Y005458D01*
X010084Y005461D02*
X010505Y005461D01*
X010506Y005463D02*
X010083Y005463D01*
X010083Y005466D02*
X010506Y005466D01*
X010506Y005468D02*
X010083Y005468D01*
X010082Y005470D02*
X010506Y005470D01*
X010507Y005473D02*
X010082Y005473D01*
X010082Y005475D02*
X010507Y005475D01*
X010507Y005478D02*
X010082Y005478D01*
X010081Y005480D02*
X010508Y005480D01*
X010508Y005483D02*
X010081Y005483D01*
X010081Y005485D02*
X010508Y005485D01*
X010508Y005487D02*
X010081Y005487D01*
X010080Y005490D02*
X010509Y005490D01*
X010509Y005492D02*
X010080Y005492D01*
X010080Y005495D02*
X010509Y005495D01*
X010510Y005497D02*
X010079Y005497D01*
X010079Y005500D02*
X010510Y005500D01*
X010510Y005502D02*
X010510Y005929D01*
X010506Y005971D01*
X010493Y006011D01*
X010473Y006048D01*
X010446Y006081D01*
X010414Y006108D01*
X010376Y006127D01*
X010336Y006140D01*
X010294Y006144D01*
X010246Y006138D01*
X010200Y006122D01*
X010160Y006097D01*
X010427Y006097D01*
X010424Y006099D02*
X010164Y006099D01*
X010168Y006102D02*
X010421Y006102D01*
X010418Y006104D02*
X010172Y006104D01*
X010175Y006107D02*
X010415Y006107D01*
X010411Y006109D02*
X010179Y006109D01*
X010183Y006111D02*
X010406Y006111D01*
X010402Y006114D02*
X010187Y006114D01*
X010191Y006116D02*
X010397Y006116D01*
X010393Y006119D02*
X010195Y006119D01*
X010199Y006121D02*
X010388Y006121D01*
X010383Y006124D02*
X010204Y006124D01*
X010211Y006126D02*
X010379Y006126D01*
X010373Y006128D02*
X010218Y006128D01*
X010225Y006131D02*
X010365Y006131D01*
X010356Y006133D02*
X010232Y006133D01*
X010239Y006136D02*
X010348Y006136D01*
X010340Y006138D02*
X010247Y006138D01*
X010268Y006141D02*
X010324Y006141D01*
X010298Y006143D02*
X010290Y006143D01*
X010160Y006097D02*
X010126Y006063D01*
X010461Y006063D01*
X010459Y006065D02*
X010128Y006065D01*
X010126Y006063D02*
X010100Y006022D01*
X010084Y005976D01*
X010079Y005929D01*
X010079Y005502D01*
X010079Y005505D02*
X010510Y005505D01*
X010510Y005507D02*
X010079Y005507D01*
X010079Y005509D02*
X010510Y005509D01*
X010510Y005512D02*
X010079Y005512D01*
X010079Y005514D02*
X010510Y005514D01*
X010510Y005517D02*
X010079Y005517D01*
X010079Y005519D02*
X010510Y005519D01*
X010510Y005522D02*
X010079Y005522D01*
X010079Y005524D02*
X010510Y005524D01*
X010510Y005526D02*
X010079Y005526D01*
X010079Y005529D02*
X010510Y005529D01*
X010510Y005531D02*
X010079Y005531D01*
X010079Y005534D02*
X010510Y005534D01*
X010510Y005536D02*
X010079Y005536D01*
X010079Y005539D02*
X010510Y005539D01*
X010510Y005541D02*
X010079Y005541D01*
X010079Y005544D02*
X010510Y005544D01*
X010510Y005546D02*
X010079Y005546D01*
X010079Y005548D02*
X010510Y005548D01*
X010510Y005551D02*
X010079Y005551D01*
X010079Y005553D02*
X010510Y005553D01*
X010510Y005556D02*
X010079Y005556D01*
X010079Y005558D02*
X010510Y005558D01*
X010510Y005561D02*
X010079Y005561D01*
X010079Y005563D02*
X010510Y005563D01*
X010510Y005565D02*
X010079Y005565D01*
X010079Y005568D02*
X010510Y005568D01*
X010510Y005570D02*
X010079Y005570D01*
X010079Y005573D02*
X010510Y005573D01*
X010510Y005575D02*
X010079Y005575D01*
X010079Y005578D02*
X010510Y005578D01*
X010510Y005580D02*
X010079Y005580D01*
X010079Y005583D02*
X010510Y005583D01*
X010510Y005585D02*
X010079Y005585D01*
X010079Y005587D02*
X010510Y005587D01*
X010510Y005590D02*
X010079Y005590D01*
X010079Y005592D02*
X010510Y005592D01*
X010510Y005595D02*
X010079Y005595D01*
X010079Y005597D02*
X010510Y005597D01*
X010510Y005600D02*
X010079Y005600D01*
X010079Y005602D02*
X010510Y005602D01*
X010510Y005604D02*
X010079Y005604D01*
X010079Y005607D02*
X010510Y005607D01*
X010510Y005609D02*
X010079Y005609D01*
X010079Y005612D02*
X010510Y005612D01*
X010510Y005614D02*
X010079Y005614D01*
X010079Y005617D02*
X010510Y005617D01*
X010510Y005619D02*
X010079Y005619D01*
X010079Y005622D02*
X010510Y005622D01*
X010510Y005624D02*
X010079Y005624D01*
X010079Y005626D02*
X010510Y005626D01*
X010510Y005629D02*
X010079Y005629D01*
X010079Y005631D02*
X010510Y005631D01*
X010510Y005634D02*
X010079Y005634D01*
X010079Y005636D02*
X010510Y005636D01*
X010510Y005639D02*
X010079Y005639D01*
X010079Y005641D02*
X010510Y005641D01*
X010510Y005643D02*
X010079Y005643D01*
X010079Y005646D02*
X010510Y005646D01*
X010510Y005648D02*
X010079Y005648D01*
X010079Y005651D02*
X010510Y005651D01*
X010510Y005653D02*
X010079Y005653D01*
X010079Y005656D02*
X010510Y005656D01*
X010510Y005658D02*
X010079Y005658D01*
X010079Y005661D02*
X010510Y005661D01*
X010510Y005663D02*
X010079Y005663D01*
X010079Y005665D02*
X010510Y005665D01*
X010510Y005668D02*
X010079Y005668D01*
X010079Y005670D02*
X010510Y005670D01*
X010510Y005673D02*
X010079Y005673D01*
X010079Y005675D02*
X010510Y005675D01*
X010510Y005678D02*
X010079Y005678D01*
X010079Y005680D02*
X010510Y005680D01*
X010510Y005682D02*
X010079Y005682D01*
X010079Y005685D02*
X010510Y005685D01*
X010510Y005687D02*
X010079Y005687D01*
X010079Y005690D02*
X010510Y005690D01*
X010510Y005692D02*
X010079Y005692D01*
X010079Y005695D02*
X010510Y005695D01*
X010510Y005697D02*
X010079Y005697D01*
X010079Y005700D02*
X010510Y005700D01*
X010510Y005702D02*
X010079Y005702D01*
X010079Y005704D02*
X010510Y005704D01*
X010510Y005707D02*
X010079Y005707D01*
X010079Y005709D02*
X010510Y005709D01*
X010510Y005712D02*
X010079Y005712D01*
X010079Y005714D02*
X010510Y005714D01*
X010510Y005717D02*
X010079Y005717D01*
X010079Y005719D02*
X010510Y005719D01*
X010510Y005721D02*
X010079Y005721D01*
X010079Y005724D02*
X010510Y005724D01*
X010510Y005726D02*
X010079Y005726D01*
X010079Y005729D02*
X010510Y005729D01*
X010510Y005731D02*
X010079Y005731D01*
X010079Y005734D02*
X010510Y005734D01*
X010510Y005736D02*
X010079Y005736D01*
X010079Y005739D02*
X010510Y005739D01*
X010510Y005741D02*
X010079Y005741D01*
X010079Y005743D02*
X010510Y005743D01*
X010510Y005746D02*
X010079Y005746D01*
X010079Y005748D02*
X010510Y005748D01*
X010510Y005751D02*
X010079Y005751D01*
X010079Y005753D02*
X010510Y005753D01*
X010510Y005756D02*
X010079Y005756D01*
X010079Y005758D02*
X010510Y005758D01*
X010510Y005760D02*
X010079Y005760D01*
X010079Y005763D02*
X010510Y005763D01*
X010510Y005765D02*
X010079Y005765D01*
X010079Y005768D02*
X010510Y005768D01*
X010510Y005770D02*
X010079Y005770D01*
X010079Y005773D02*
X010510Y005773D01*
X010510Y005775D02*
X010079Y005775D01*
X010079Y005778D02*
X010510Y005778D01*
X010510Y005780D02*
X010079Y005780D01*
X010079Y005782D02*
X010510Y005782D01*
X010510Y005785D02*
X010079Y005785D01*
X010079Y005787D02*
X010510Y005787D01*
X010510Y005790D02*
X010079Y005790D01*
X010079Y005792D02*
X010510Y005792D01*
X010510Y005795D02*
X010079Y005795D01*
X010079Y005797D02*
X010510Y005797D01*
X010510Y005799D02*
X010079Y005799D01*
X010079Y005802D02*
X010510Y005802D01*
X010510Y005804D02*
X010079Y005804D01*
X010079Y005807D02*
X010510Y005807D01*
X010510Y005809D02*
X010079Y005809D01*
X010079Y005812D02*
X010510Y005812D01*
X010510Y005814D02*
X010079Y005814D01*
X010079Y005817D02*
X010510Y005817D01*
X010510Y005819D02*
X010079Y005819D01*
X010079Y005821D02*
X010510Y005821D01*
X010510Y005824D02*
X010079Y005824D01*
X010079Y005826D02*
X010510Y005826D01*
X010510Y005829D02*
X010079Y005829D01*
X010079Y005831D02*
X010510Y005831D01*
X010510Y005834D02*
X010079Y005834D01*
X010079Y005836D02*
X010510Y005836D01*
X010510Y005838D02*
X010079Y005838D01*
X010079Y005841D02*
X010510Y005841D01*
X010510Y005843D02*
X010079Y005843D01*
X010079Y005846D02*
X010510Y005846D01*
X010510Y005848D02*
X010079Y005848D01*
X010079Y005851D02*
X010510Y005851D01*
X010510Y005853D02*
X010079Y005853D01*
X010079Y005855D02*
X010510Y005855D01*
X010510Y005858D02*
X010079Y005858D01*
X010079Y005860D02*
X010510Y005860D01*
X010510Y005863D02*
X010079Y005863D01*
X010079Y005865D02*
X010510Y005865D01*
X010510Y005868D02*
X010079Y005868D01*
X010079Y005870D02*
X010510Y005870D01*
X010510Y005873D02*
X010079Y005873D01*
X010079Y005875D02*
X010510Y005875D01*
X010510Y005877D02*
X010079Y005877D01*
X010079Y005880D02*
X010510Y005880D01*
X010510Y005882D02*
X010079Y005882D01*
X010079Y005885D02*
X010510Y005885D01*
X010510Y005887D02*
X010079Y005887D01*
X010079Y005890D02*
X010510Y005890D01*
X010510Y005892D02*
X010079Y005892D01*
X010079Y005894D02*
X010510Y005894D01*
X010510Y005897D02*
X010079Y005897D01*
X010079Y005899D02*
X010510Y005899D01*
X010510Y005902D02*
X010079Y005902D01*
X010079Y005904D02*
X010510Y005904D01*
X010510Y005907D02*
X010079Y005907D01*
X010079Y005909D02*
X010510Y005909D01*
X010510Y005912D02*
X010079Y005912D01*
X010079Y005914D02*
X010510Y005914D01*
X010510Y005916D02*
X010079Y005916D01*
X010079Y005919D02*
X010510Y005919D01*
X010510Y005921D02*
X010079Y005921D01*
X010079Y005924D02*
X010510Y005924D01*
X010510Y005926D02*
X010079Y005926D01*
X010079Y005929D02*
X010510Y005929D01*
X010510Y005931D02*
X010079Y005931D01*
X010079Y005933D02*
X010510Y005933D01*
X010509Y005936D02*
X010080Y005936D01*
X010080Y005938D02*
X010509Y005938D01*
X010509Y005941D02*
X010080Y005941D01*
X010080Y005943D02*
X010509Y005943D01*
X010508Y005946D02*
X010081Y005946D01*
X010081Y005948D02*
X010508Y005948D01*
X010508Y005951D02*
X010081Y005951D01*
X010082Y005953D02*
X010508Y005953D01*
X010507Y005955D02*
X010082Y005955D01*
X010082Y005958D02*
X010507Y005958D01*
X010507Y005960D02*
X010082Y005960D01*
X010083Y005963D02*
X010507Y005963D01*
X010506Y005965D02*
X010083Y005965D01*
X010083Y005968D02*
X010506Y005968D01*
X010506Y005970D02*
X010084Y005970D01*
X010084Y005972D02*
X010505Y005972D01*
X010505Y005975D02*
X010084Y005975D01*
X010085Y005977D02*
X010504Y005977D01*
X010503Y005980D02*
X010085Y005980D01*
X010086Y005982D02*
X010502Y005982D01*
X010502Y005985D02*
X010087Y005985D01*
X010088Y005987D02*
X010501Y005987D01*
X010500Y005990D02*
X010089Y005990D01*
X010090Y005992D02*
X010499Y005992D01*
X010499Y005994D02*
X010091Y005994D01*
X010091Y005997D02*
X010498Y005997D01*
X010497Y005999D02*
X010092Y005999D01*
X010093Y006002D02*
X010496Y006002D01*
X010496Y006004D02*
X010094Y006004D01*
X010095Y006007D02*
X010495Y006007D01*
X010494Y006009D02*
X010096Y006009D01*
X010096Y006011D02*
X010493Y006011D01*
X010492Y006014D02*
X010097Y006014D01*
X010098Y006016D02*
X010491Y006016D01*
X010489Y006019D02*
X010099Y006019D01*
X010100Y006021D02*
X010488Y006021D01*
X010487Y006024D02*
X010101Y006024D01*
X010103Y006026D02*
X010485Y006026D01*
X010484Y006029D02*
X010104Y006029D01*
X010106Y006031D02*
X010483Y006031D01*
X010481Y006033D02*
X010107Y006033D01*
X010109Y006036D02*
X010480Y006036D01*
X010479Y006038D02*
X010110Y006038D01*
X010112Y006041D02*
X010477Y006041D01*
X010476Y006043D02*
X010114Y006043D01*
X010115Y006046D02*
X010475Y006046D01*
X010474Y006048D02*
X010117Y006048D01*
X010118Y006050D02*
X010472Y006050D01*
X010470Y006053D02*
X010120Y006053D01*
X010121Y006055D02*
X010468Y006055D01*
X010466Y006058D02*
X010123Y006058D01*
X010124Y006060D02*
X010464Y006060D01*
X010457Y006068D02*
X010131Y006068D01*
X010133Y006070D02*
X010455Y006070D01*
X010453Y006072D02*
X010136Y006072D01*
X010138Y006075D02*
X010451Y006075D01*
X010449Y006077D02*
X010140Y006077D01*
X010143Y006080D02*
X010447Y006080D01*
X010445Y006082D02*
X010145Y006082D01*
X010148Y006085D02*
X010442Y006085D01*
X010439Y006087D02*
X010150Y006087D01*
X010153Y006089D02*
X010436Y006089D01*
X010433Y006092D02*
X010155Y006092D01*
X010157Y006094D02*
X010430Y006094D01*
X009380Y005971D02*
X009384Y005929D01*
X009384Y005502D01*
X008953Y005502D01*
X008953Y005929D01*
X008958Y005976D01*
X008974Y006022D01*
X009000Y006063D01*
X009336Y006063D01*
X009338Y006060D02*
X008998Y006060D01*
X008997Y006058D02*
X009340Y006058D01*
X009342Y006055D02*
X008995Y006055D01*
X008994Y006053D02*
X009344Y006053D01*
X009346Y006050D02*
X008992Y006050D01*
X008991Y006048D02*
X009348Y006048D01*
X009347Y006048D02*
X009367Y006011D01*
X009380Y005971D01*
X009380Y005970D02*
X008958Y005970D01*
X008958Y005972D02*
X009379Y005972D01*
X009379Y005975D02*
X008958Y005975D01*
X008959Y005977D02*
X009378Y005977D01*
X009377Y005980D02*
X008959Y005980D01*
X008960Y005982D02*
X009376Y005982D01*
X009376Y005985D02*
X008961Y005985D01*
X008962Y005987D02*
X009375Y005987D01*
X009374Y005990D02*
X008963Y005990D01*
X008964Y005992D02*
X009373Y005992D01*
X009373Y005994D02*
X008965Y005994D01*
X008965Y005997D02*
X009372Y005997D01*
X009371Y005999D02*
X008966Y005999D01*
X008967Y006002D02*
X009370Y006002D01*
X009370Y006004D02*
X008968Y006004D01*
X008969Y006007D02*
X009369Y006007D01*
X009368Y006009D02*
X008970Y006009D01*
X008971Y006011D02*
X009367Y006011D01*
X009366Y006014D02*
X008971Y006014D01*
X008972Y006016D02*
X009365Y006016D01*
X009363Y006019D02*
X008973Y006019D01*
X008974Y006021D02*
X009362Y006021D01*
X009361Y006024D02*
X008975Y006024D01*
X008977Y006026D02*
X009359Y006026D01*
X009358Y006029D02*
X008978Y006029D01*
X008980Y006031D02*
X009357Y006031D01*
X009355Y006033D02*
X008981Y006033D01*
X008983Y006036D02*
X009354Y006036D01*
X009353Y006038D02*
X008984Y006038D01*
X008986Y006041D02*
X009351Y006041D01*
X009350Y006043D02*
X008988Y006043D01*
X008989Y006046D02*
X009349Y006046D01*
X009347Y006048D02*
X009320Y006081D01*
X009288Y006108D01*
X009250Y006127D01*
X009210Y006140D01*
X009168Y006144D01*
X009120Y006138D01*
X009074Y006122D01*
X009034Y006097D01*
X009301Y006097D01*
X009298Y006099D02*
X009038Y006099D01*
X009042Y006102D02*
X009295Y006102D01*
X009292Y006104D02*
X009046Y006104D01*
X009050Y006107D02*
X009289Y006107D01*
X009285Y006109D02*
X009053Y006109D01*
X009057Y006111D02*
X009280Y006111D01*
X009276Y006114D02*
X009061Y006114D01*
X009065Y006116D02*
X009271Y006116D01*
X009267Y006119D02*
X009069Y006119D01*
X009073Y006121D02*
X009262Y006121D01*
X009257Y006124D02*
X009078Y006124D01*
X009085Y006126D02*
X009253Y006126D01*
X009247Y006128D02*
X009092Y006128D01*
X009099Y006131D02*
X009239Y006131D01*
X009230Y006133D02*
X009106Y006133D01*
X009113Y006136D02*
X009222Y006136D01*
X009214Y006138D02*
X009121Y006138D01*
X009142Y006141D02*
X009198Y006141D01*
X009172Y006143D02*
X009164Y006143D01*
X009034Y006097D02*
X009000Y006063D01*
X009002Y006065D02*
X009333Y006065D01*
X009331Y006068D02*
X009005Y006068D01*
X009007Y006070D02*
X009329Y006070D01*
X009327Y006072D02*
X009010Y006072D01*
X009012Y006075D02*
X009325Y006075D01*
X009323Y006077D02*
X009014Y006077D01*
X009017Y006080D02*
X009321Y006080D01*
X009319Y006082D02*
X009019Y006082D01*
X009022Y006085D02*
X009316Y006085D01*
X009313Y006087D02*
X009024Y006087D01*
X009027Y006089D02*
X009310Y006089D01*
X009307Y006092D02*
X009029Y006092D01*
X009031Y006094D02*
X009304Y006094D01*
X009380Y005968D02*
X008957Y005968D01*
X008957Y005965D02*
X009380Y005965D01*
X009381Y005963D02*
X008957Y005963D01*
X008956Y005960D02*
X009381Y005960D01*
X009381Y005958D02*
X008956Y005958D01*
X008956Y005955D02*
X009381Y005955D01*
X009382Y005953D02*
X008956Y005953D01*
X008955Y005951D02*
X009382Y005951D01*
X009382Y005948D02*
X008955Y005948D01*
X008955Y005946D02*
X009382Y005946D01*
X009383Y005943D02*
X008955Y005943D01*
X008954Y005941D02*
X009383Y005941D01*
X009383Y005938D02*
X008954Y005938D01*
X008954Y005936D02*
X009383Y005936D01*
X009384Y005933D02*
X008953Y005933D01*
X008953Y005931D02*
X009384Y005931D01*
X009384Y005929D02*
X008953Y005929D01*
X008953Y005926D02*
X009384Y005926D01*
X009384Y005924D02*
X008953Y005924D01*
X008953Y005921D02*
X009384Y005921D01*
X009384Y005919D02*
X008953Y005919D01*
X008953Y005916D02*
X009384Y005916D01*
X009384Y005914D02*
X008953Y005914D01*
X008953Y005912D02*
X009384Y005912D01*
X009384Y005909D02*
X008953Y005909D01*
X008953Y005907D02*
X009384Y005907D01*
X009384Y005904D02*
X008953Y005904D01*
X008953Y005902D02*
X009384Y005902D01*
X009384Y005899D02*
X008953Y005899D01*
X008953Y005897D02*
X009384Y005897D01*
X009384Y005894D02*
X008953Y005894D01*
X008953Y005892D02*
X009384Y005892D01*
X009384Y005890D02*
X008953Y005890D01*
X008953Y005887D02*
X009384Y005887D01*
X009384Y005885D02*
X008953Y005885D01*
X008953Y005882D02*
X009384Y005882D01*
X009384Y005880D02*
X008953Y005880D01*
X008953Y005877D02*
X009384Y005877D01*
X009384Y005875D02*
X008953Y005875D01*
X008953Y005873D02*
X009384Y005873D01*
X009384Y005870D02*
X008953Y005870D01*
X008953Y005868D02*
X009384Y005868D01*
X009384Y005865D02*
X008953Y005865D01*
X008953Y005863D02*
X009384Y005863D01*
X009384Y005860D02*
X008953Y005860D01*
X008953Y005858D02*
X009384Y005858D01*
X009384Y005855D02*
X008953Y005855D01*
X008953Y005853D02*
X009384Y005853D01*
X009384Y005851D02*
X008953Y005851D01*
X008953Y005848D02*
X009384Y005848D01*
X009384Y005846D02*
X008953Y005846D01*
X008953Y005843D02*
X009384Y005843D01*
X009384Y005841D02*
X008953Y005841D01*
X008953Y005838D02*
X009384Y005838D01*
X009384Y005836D02*
X008953Y005836D01*
X008953Y005834D02*
X009384Y005834D01*
X009384Y005831D02*
X008953Y005831D01*
X008953Y005829D02*
X009384Y005829D01*
X009384Y005826D02*
X008953Y005826D01*
X008953Y005824D02*
X009384Y005824D01*
X009384Y005821D02*
X008953Y005821D01*
X008953Y005819D02*
X009384Y005819D01*
X009384Y005817D02*
X008953Y005817D01*
X008953Y005814D02*
X009384Y005814D01*
X009384Y005812D02*
X008953Y005812D01*
X008953Y005809D02*
X009384Y005809D01*
X009384Y005807D02*
X008953Y005807D01*
X008953Y005804D02*
X009384Y005804D01*
X009384Y005802D02*
X008953Y005802D01*
X008953Y005799D02*
X009384Y005799D01*
X009384Y005797D02*
X008953Y005797D01*
X008953Y005795D02*
X009384Y005795D01*
X009384Y005792D02*
X008953Y005792D01*
X008953Y005790D02*
X009384Y005790D01*
X009384Y005787D02*
X008953Y005787D01*
X008953Y005785D02*
X009384Y005785D01*
X009384Y005782D02*
X008953Y005782D01*
X008953Y005780D02*
X009384Y005780D01*
X009384Y005778D02*
X008953Y005778D01*
X008953Y005775D02*
X009384Y005775D01*
X009384Y005773D02*
X008953Y005773D01*
X008953Y005770D02*
X009384Y005770D01*
X009384Y005768D02*
X008953Y005768D01*
X008953Y005765D02*
X009384Y005765D01*
X009384Y005763D02*
X008953Y005763D01*
X008953Y005760D02*
X009384Y005760D01*
X009384Y005758D02*
X008953Y005758D01*
X008953Y005756D02*
X009384Y005756D01*
X009384Y005753D02*
X008953Y005753D01*
X008953Y005751D02*
X009384Y005751D01*
X009384Y005748D02*
X008953Y005748D01*
X008953Y005746D02*
X009384Y005746D01*
X009384Y005743D02*
X008953Y005743D01*
X008953Y005741D02*
X009384Y005741D01*
X009384Y005739D02*
X008953Y005739D01*
X008953Y005736D02*
X009384Y005736D01*
X009384Y005734D02*
X008953Y005734D01*
X008953Y005731D02*
X009384Y005731D01*
X009384Y005729D02*
X008953Y005729D01*
X008953Y005726D02*
X009384Y005726D01*
X009384Y005724D02*
X008953Y005724D01*
X008953Y005721D02*
X009384Y005721D01*
X009384Y005719D02*
X008953Y005719D01*
X008953Y005717D02*
X009384Y005717D01*
X009384Y005714D02*
X008953Y005714D01*
X008953Y005712D02*
X009384Y005712D01*
X009384Y005709D02*
X008953Y005709D01*
X008953Y005707D02*
X009384Y005707D01*
X009384Y005704D02*
X008953Y005704D01*
X008953Y005702D02*
X009384Y005702D01*
X009384Y005700D02*
X008953Y005700D01*
X008953Y005697D02*
X009384Y005697D01*
X009384Y005695D02*
X008953Y005695D01*
X008953Y005692D02*
X009384Y005692D01*
X009384Y005690D02*
X008953Y005690D01*
X008953Y005687D02*
X009384Y005687D01*
X009384Y005685D02*
X008953Y005685D01*
X008953Y005682D02*
X009384Y005682D01*
X009384Y005680D02*
X008953Y005680D01*
X008953Y005678D02*
X009384Y005678D01*
X009384Y005675D02*
X008953Y005675D01*
X008953Y005673D02*
X009384Y005673D01*
X009384Y005670D02*
X008953Y005670D01*
X008953Y005668D02*
X009384Y005668D01*
X009384Y005665D02*
X008953Y005665D01*
X008953Y005663D02*
X009384Y005663D01*
X009384Y005661D02*
X008953Y005661D01*
X008953Y005658D02*
X009384Y005658D01*
X009384Y005656D02*
X008953Y005656D01*
X008953Y005653D02*
X009384Y005653D01*
X009384Y005651D02*
X008953Y005651D01*
X008953Y005648D02*
X009384Y005648D01*
X009384Y005646D02*
X008953Y005646D01*
X008953Y005643D02*
X009384Y005643D01*
X009384Y005641D02*
X008953Y005641D01*
X008953Y005639D02*
X009384Y005639D01*
X009384Y005636D02*
X008953Y005636D01*
X008953Y005634D02*
X009384Y005634D01*
X009384Y005631D02*
X008953Y005631D01*
X008953Y005629D02*
X009384Y005629D01*
X009384Y005626D02*
X008953Y005626D01*
X008953Y005624D02*
X009384Y005624D01*
X009384Y005622D02*
X008953Y005622D01*
X008953Y005619D02*
X009384Y005619D01*
X009384Y005617D02*
X008953Y005617D01*
X008953Y005614D02*
X009384Y005614D01*
X009384Y005612D02*
X008953Y005612D01*
X008953Y005609D02*
X009384Y005609D01*
X009384Y005607D02*
X008953Y005607D01*
X008953Y005604D02*
X009384Y005604D01*
X009384Y005602D02*
X008953Y005602D01*
X008953Y005600D02*
X009384Y005600D01*
X009384Y005597D02*
X008953Y005597D01*
X008953Y005595D02*
X009384Y005595D01*
X009384Y005592D02*
X008953Y005592D01*
X008953Y005590D02*
X009384Y005590D01*
X009384Y005587D02*
X008953Y005587D01*
X008953Y005585D02*
X009384Y005585D01*
X009384Y005583D02*
X008953Y005583D01*
X008953Y005580D02*
X009384Y005580D01*
X009384Y005578D02*
X008953Y005578D01*
X008953Y005575D02*
X009384Y005575D01*
X009384Y005573D02*
X008953Y005573D01*
X008953Y005570D02*
X009384Y005570D01*
X009384Y005568D02*
X008953Y005568D01*
X008953Y005565D02*
X009384Y005565D01*
X009384Y005563D02*
X008953Y005563D01*
X008953Y005561D02*
X009384Y005561D01*
X009384Y005558D02*
X008953Y005558D01*
X008953Y005556D02*
X009384Y005556D01*
X009384Y005553D02*
X008953Y005553D01*
X008953Y005551D02*
X009384Y005551D01*
X009384Y005548D02*
X008953Y005548D01*
X008953Y005546D02*
X009384Y005546D01*
X009384Y005544D02*
X008953Y005544D01*
X008953Y005541D02*
X009384Y005541D01*
X009384Y005539D02*
X008953Y005539D01*
X008953Y005536D02*
X009384Y005536D01*
X009384Y005534D02*
X008953Y005534D01*
X008953Y005531D02*
X009384Y005531D01*
X009384Y005529D02*
X008953Y005529D01*
X008953Y005526D02*
X009384Y005526D01*
X009384Y005524D02*
X008953Y005524D01*
X008953Y005522D02*
X009384Y005522D01*
X009384Y005519D02*
X008953Y005519D01*
X008953Y005517D02*
X009384Y005517D01*
X009384Y005514D02*
X008953Y005514D01*
X008953Y005512D02*
X009384Y005512D01*
X009384Y005509D02*
X008953Y005509D01*
X008953Y005507D02*
X009384Y005507D01*
X009384Y005505D02*
X008953Y005505D01*
X008953Y005502D02*
X008958Y005455D01*
X008974Y005409D01*
X009000Y005368D01*
X009336Y005368D01*
X009337Y005368D02*
X009302Y005334D01*
X009035Y005334D01*
X009034Y005334D02*
X009000Y005368D01*
X008998Y005370D02*
X009338Y005370D01*
X009337Y005368D02*
X009362Y005409D01*
X009379Y005454D01*
X009384Y005502D01*
X009384Y005500D02*
X008953Y005500D01*
X008953Y005497D02*
X009384Y005497D01*
X009383Y005495D02*
X008954Y005495D01*
X008954Y005492D02*
X009383Y005492D01*
X009383Y005490D02*
X008954Y005490D01*
X008955Y005487D02*
X009382Y005487D01*
X009382Y005485D02*
X008955Y005485D01*
X008955Y005483D02*
X009382Y005483D01*
X009382Y005480D02*
X008955Y005480D01*
X008956Y005478D02*
X009381Y005478D01*
X009381Y005475D02*
X008956Y005475D01*
X008956Y005473D02*
X009381Y005473D01*
X009380Y005470D02*
X008956Y005470D01*
X008957Y005468D02*
X009380Y005468D01*
X009380Y005466D02*
X008957Y005466D01*
X008957Y005463D02*
X009380Y005463D01*
X009379Y005461D02*
X008958Y005461D01*
X008958Y005458D02*
X009379Y005458D01*
X009379Y005456D02*
X008958Y005456D01*
X008959Y005453D02*
X009378Y005453D01*
X009377Y005451D02*
X008960Y005451D01*
X008960Y005448D02*
X009376Y005448D01*
X009376Y005446D02*
X008961Y005446D01*
X008962Y005444D02*
X009375Y005444D01*
X009374Y005441D02*
X008963Y005441D01*
X008964Y005439D02*
X009373Y005439D01*
X009372Y005436D02*
X008965Y005436D01*
X008966Y005434D02*
X009371Y005434D01*
X009370Y005431D02*
X008966Y005431D01*
X008967Y005429D02*
X009370Y005429D01*
X009369Y005427D02*
X008968Y005427D01*
X008969Y005424D02*
X009368Y005424D01*
X009367Y005422D02*
X008970Y005422D01*
X008971Y005419D02*
X009366Y005419D01*
X009365Y005417D02*
X008971Y005417D01*
X008972Y005414D02*
X009364Y005414D01*
X009363Y005412D02*
X008973Y005412D01*
X008974Y005409D02*
X009363Y005409D01*
X009361Y005407D02*
X008976Y005407D01*
X008977Y005405D02*
X009360Y005405D01*
X009358Y005402D02*
X008979Y005402D01*
X008980Y005400D02*
X009357Y005400D01*
X009355Y005397D02*
X008982Y005397D01*
X008983Y005395D02*
X009354Y005395D01*
X009352Y005392D02*
X008985Y005392D01*
X008986Y005390D02*
X009350Y005390D01*
X009349Y005388D02*
X008988Y005388D01*
X008989Y005385D02*
X009347Y005385D01*
X009346Y005383D02*
X008991Y005383D01*
X008992Y005380D02*
X009344Y005380D01*
X009343Y005378D02*
X008994Y005378D01*
X008995Y005375D02*
X009341Y005375D01*
X009340Y005373D02*
X008997Y005373D01*
X009003Y005366D02*
X009334Y005366D01*
X009332Y005363D02*
X009005Y005363D01*
X009007Y005361D02*
X009329Y005361D01*
X009327Y005358D02*
X009010Y005358D01*
X009012Y005356D02*
X009324Y005356D01*
X009322Y005353D02*
X009015Y005353D01*
X009017Y005351D02*
X009319Y005351D01*
X009317Y005349D02*
X009020Y005349D01*
X009022Y005346D02*
X009314Y005346D01*
X009312Y005344D02*
X009025Y005344D01*
X009027Y005341D02*
X009309Y005341D01*
X009307Y005339D02*
X009029Y005339D01*
X009032Y005336D02*
X009305Y005336D01*
X009302Y005334D02*
X009261Y005309D01*
X009216Y005293D01*
X009168Y005288D01*
X009167Y005288D01*
X009168Y005288D02*
X009120Y005293D01*
X009074Y005309D01*
X009034Y005334D01*
X009038Y005331D02*
X009298Y005331D01*
X009294Y005329D02*
X009042Y005329D01*
X009046Y005327D02*
X009290Y005327D01*
X009286Y005324D02*
X009050Y005324D01*
X009054Y005322D02*
X009282Y005322D01*
X009279Y005319D02*
X009058Y005319D01*
X009062Y005317D02*
X009275Y005317D01*
X009271Y005314D02*
X009066Y005314D01*
X009070Y005312D02*
X009267Y005312D01*
X009263Y005310D02*
X009073Y005310D01*
X009079Y005307D02*
X009257Y005307D01*
X009250Y005305D02*
X009086Y005305D01*
X009093Y005302D02*
X009243Y005302D01*
X009236Y005300D02*
X009100Y005300D01*
X009107Y005297D02*
X009229Y005297D01*
X009222Y005295D02*
X009114Y005295D01*
X009124Y005292D02*
X009213Y005292D01*
X009190Y005290D02*
X009146Y005290D01*
M02*
